<?xml version="1.0" standalone="no"?>
<!DOCTYPE svg PUBLIC "-//W3C//DTD SVG 20010904//EN"
 "http://www.w3.org/TR/2001/REC-SVG-20010904/DTD/svg10.dtd">
<svg version="1.0" xmlns="http://www.w3.org/2000/svg"
 width="1024.000000pt" height="1024.000000pt" viewBox="0 0 1024.000000 1024.000000"
 preserveAspectRatio="xMidYMid meet">
<metadata>
Created by potrace 1.14, written by Peter Selinger 2001-2017
</metadata>
<g transform="translate(0.000000,1024.000000) scale(0.100000,-0.100000)"
fill="#000000" stroke="none">
<path d="M6475 8803 c-14 -16 -33 -45 -43 -65 -9 -21 -20 -38 -24 -38 -4 0
-20 16 -35 35 -31 39 -47 44 -62 18 -8 -15 -13 -15 -36 -5 -15 7 -30 10 -33 7
-13 -13 21 -86 51 -109 23 -19 27 -26 15 -26 -12 0 -15 -5 -11 -17 6 -16 4
-16 -15 1 -26 22 -28 28 -7 20 22 -9 18 2 -11 31 -15 15 -29 22 -33 17 -3 -5
-26 -8 -51 -7 -27 2 -57 -4 -75 -13 l-30 -17 28 -3 c15 -2 31 -12 37 -22 8
-15 5 -20 -22 -29 -19 -7 -35 -7 -42 -2 -15 13 -82 -11 -113 -41 -26 -24 -68
-94 -68 -115 0 -6 -18 -28 -40 -47 l-40 -36 53 20 c56 21 57 20 15 -36 -25
-34 -29 -50 -11 -56 7 -3 -1 -21 -21 -48 -28 -39 -32 -51 -30 -105 1 -33 -3
-70 -10 -82 -6 -12 -14 -48 -17 -79 -2 -31 -9 -65 -14 -75 -6 -9 -7 -24 -4
-32 3 -8 0 -43 -6 -78 -25 -136 -6 -426 36 -539 43 -121 74 -273 79 -402 2
-48 8 -95 14 -105 9 -16 10 -16 11 4 0 25 17 39 43 35 11 -2 17 3 17 14 0 10
6 25 13 33 8 9 21 34 30 56 8 22 25 62 37 89 l22 49 24 -29 c27 -32 67 -106
79 -144 12 -40 45 -80 65 -80 30 0 47 -25 76 -112 33 -101 44 -124 149 -308
46 -80 96 -176 112 -215 25 -63 41 -83 170 -210 106 -105 147 -153 163 -189
11 -27 19 -51 17 -53 -3 -2 -12 15 -21 38 -21 53 -62 104 -69 86 -4 -9 -6 -9
-6 1 -1 6 0 13 2 15 1 2 -11 15 -27 30 -24 23 -32 25 -45 15 -14 -11 -14 -11
-4 3 10 13 0 27 -63 90 -44 42 -74 65 -70 54 3 -11 19 -72 36 -135 17 -63 44
-155 60 -205 42 -128 62 -220 63 -295 0 -36 2 -58 4 -48 5 19 34 34 30 15 -1
-7 7 -11 21 -10 l22 3 -26 -41 c-40 -64 -9 -35 37 34 23 34 57 78 75 97 39 42
56 83 48 115 -5 20 4 36 48 84 54 60 135 190 145 233 4 20 2 19 -15 -7 -11
-16 -54 -66 -96 -110 l-76 -80 -25 28 c-45 50 -29 85 68 143 34 21 80 49 102
64 111 74 189 122 213 132 15 6 81 11 147 12 146 2 186 18 222 86 24 45 30
104 13 115 -5 3 -10 0 -10 -8 0 -18 -38 -53 -74 -67 -25 -9 -28 -8 -21 7 4 10
9 34 13 53 l5 35 -36 -32 c-96 -84 -258 -67 -546 56 -75 32 -180 75 -233 96
-53 22 -94 43 -91 49 4 5 -1 7 -10 3 -10 -3 -17 -2 -17 4 0 6 -4 8 -8 5 -12
-7 -82 15 -77 25 3 4 -10 12 -28 18 -43 15 -91 64 -116 122 -12 26 -39 113
-61 194 -50 186 -73 226 -98 170 -16 -35 -67 -58 -110 -50 -69 13 -192 172
-229 295 -26 89 -23 165 10 236 16 34 44 77 63 95 43 42 90 44 156 5 25 -14
56 -26 69 -26 38 0 95 -45 118 -92 14 -30 22 -70 25 -129 3 -62 11 -99 26
-128 30 -60 45 -62 95 -9 l43 44 -3 182 c-3 143 -1 183 10 192 13 11 55 84 55
96 0 3 -5 2 -10 -1 -6 -4 -3 10 7 29 18 39 55 67 154 116 35 18 76 44 92 58
l27 26 -27 12 c-16 7 -22 13 -15 13 17 1 15 21 -3 21 -9 0 -12 6 -9 15 4 10 0
15 -14 15 -13 0 -22 9 -27 28 -3 15 -13 34 -20 42 -23 25 -25 63 -7 100 14 28
29 39 85 60 l68 26 -36 17 c-20 9 -43 17 -53 18 -11 0 -9 4 8 10 18 7 36 7 63
-2 26 -9 41 -9 45 -2 4 5 14 10 22 10 8 0 32 3 53 7 24 5 37 4 33 -2 -4 -6 7
-7 29 -2 42 10 103 -3 147 -30 40 -24 71 -28 42 -4 -17 14 -16 14 11 0 92 -47
98 -49 92 -33 -5 13 7 11 63 -8 46 -16 70 -20 73 -12 2 6 38 -8 90 -36 48 -26
98 -47 112 -47 53 0 108 -91 155 -255 17 -60 35 -114 39 -118 14 -14 36 56 36
109 -1 33 -8 63 -23 88 -29 49 -28 55 5 25 l27 -24 -16 25 c-8 13 -26 27 -38
30 -36 8 -34 24 4 42 36 17 79 68 90 105 8 27 -26 136 -71 226 -28 56 -45 76
-98 115 -35 25 -62 48 -60 50 2 2 28 -12 59 -32 41 -26 68 -54 99 -103 64
-100 70 -114 77 -163 l6 -45 13 59 c10 47 11 68 1 99 -14 49 -80 121 -134 147
-23 10 -63 32 -91 48 -67 38 -261 114 -360 142 -44 12 -148 37 -232 55 -84 19
-164 42 -179 52 -23 14 -50 18 -139 19 -60 1 -123 6 -138 13 -39 15 -86 14
-121 -4 -15 -8 -35 -15 -43 -15 -8 0 -31 -11 -51 -25 -30 -21 -38 -23 -40 -10
-5 24 -17 18 -43 -20 -21 -31 -39 -45 -39 -30 0 12 39 82 52 93 7 6 36 12 63
15 l50 3 -57 2 c-51 2 -60 -1 -83 -25z m320 -3 c4 -6 -17 -10 -57 -10 -44 0
-59 3 -48 10 20 13 97 13 105 0z m98 -27 c-7 -2 -19 -2 -25 0 -7 3 -2 5 12 5
14 0 19 -2 13 -5z m130 -10 c-7 -2 -19 -2 -25 0 -7 3 -2 5 12 5 14 0 19 -2 13
-5z m44 -9 c-3 -3 -12 -4 -19 -1 -8 3 -5 6 6 6 11 1 17 -2 13 -5z m-744 -87
c15 -16 25 -32 22 -35 -9 -9 -56 41 -76 83 l-19 40 22 -30 c13 -16 36 -42 51
-58z m52 35 c21 -23 36 -45 33 -47 -10 -10 -88 58 -88 77 0 26 9 21 55 -30z
m1033 -29 c32 -9 52 -18 47 -20 -6 -2 -35 5 -65 16 -68 24 -57 27 18 4z m-982
-68 c-11 -8 -25 -15 -30 -15 -6 1 0 7 14 15 32 19 40 18 16 0z m-366 -43 c0
-18 -107 -98 -117 -88 -8 8 34 54 72 77 33 21 45 23 45 11z m113 -9 c-7 -2
-19 -2 -25 0 -7 3 -2 5 12 5 14 0 19 -2 13 -5z m1576 -128 c53 -56 96 -125
107 -170 3 -17 -9 1 -30 40 -36 70 -90 136 -156 189 l-35 28 33 -19 c19 -10
55 -40 81 -68z m-110 -36 c29 -36 23 -32 -32 21 -37 36 -67 67 -67 69 0 10 68
-51 99 -90z m-293 29 c4 -7 -9 1 -29 16 -20 16 -37 30 -37 33 0 7 58 -36 66
-49z m568 -38 c39 -53 57 -88 24 -45 -12 17 -45 54 -73 84 -40 44 -44 50 -17
30 19 -13 48 -44 66 -69z m-1029 70 c3 -6 -1 -7 -9 -4 -18 7 -21 14 -7 14 6 0
13 -4 16 -10z m342 -63 c10 -17 -49 28 -72 54 -14 16 -6 13 22 -10 24 -18 46
-38 50 -44z m-557 59 c0 -2 -7 -7 -16 -10 -8 -3 -12 -2 -9 4 6 10 25 14 25 6z
m820 -83 l45 -47 -45 39 c-25 22 -61 52 -80 68 l-35 27 35 -19 c19 -11 55 -41
80 -68z m494 54 c24 -32 61 -107 52 -107 -2 0 -15 19 -28 43 -13 23 -32 54
-42 70 -25 38 -12 34 18 -6z m-1471 16 c-7 -2 -19 -2 -25 0 -7 3 -2 5 12 5 14
0 19 -2 13 -5z m296 3 c-2 -2 -38 -6 -79 -9 -49 -4 -70 -3 -60 3 14 9 149 15
139 6z m136 -16 c3 -6 -1 -7 -9 -4 -18 7 -21 14 -7 14 6 0 13 -4 16 -10z
m-468 -66 c-3 -3 -12 -4 -19 -1 -8 3 -5 6 6 6 11 1 17 -2 13 -5z m-292 -124
c-3 -5 -14 -10 -23 -10 -15 0 -15 2 -2 10 20 13 33 13 25 0z m235 -14 c0 -2
-11 -6 -25 -8 -14 -3 -25 -1 -25 3 0 5 11 9 25 9 14 0 25 -2 25 -4z m-70 -16
c0 -5 -9 -10 -21 -10 -11 0 -17 5 -14 10 3 6 13 10 21 10 8 0 14 -4 14 -10z
m353 3 c-7 -2 -19 -2 -25 0 -7 3 -2 5 12 5 14 0 19 -2 13 -5z m-418 -23 c-27
-12 -43 -12 -25 0 8 5 22 9 30 9 10 0 8 -3 -5 -9z m213 -27 c-10 -2 -26 -2
-35 0 -10 3 -2 5 17 5 19 0 27 -2 18 -5z m99 -9 c-3 -3 -12 -4 -19 -1 -8 3 -5
6 6 6 11 1 17 -2 13 -5z m73 -10 c0 -2 -14 -4 -31 -4 -16 0 -28 4 -25 9 5 8
56 3 56 -5z m-110 -124 c8 -5 11 -10 5 -10 -5 0 -17 5 -25 10 -8 5 -10 10 -5
10 6 0 17 -5 25 -10z m-210 -10 c-8 -5 -19 -10 -25 -10 -5 0 -3 5 5 10 8 5 20
10 25 10 6 0 3 -5 -5 -10z m175 0 c7 -12 -2 -12 -30 0 -19 8 -19 9 2 9 12 1
25 -3 28 -9z m60 -55 c-30 -14 -94 -21 -82 -9 8 8 66 22 92 22 15 0 12 -3 -10
-13z m1354 -40 c12 -31 21 -77 20 -103 l-1 -47 -13 60 c-7 33 -20 79 -29 103
-8 23 -11 42 -6 42 5 0 18 -25 29 -55z m-1445 -1352 l26 -48 -24 29 c-21 26
-40 66 -31 66 2 0 15 -21 29 -47z m476 -1096 c0 -2 -10 -12 -22 -23 l-23 -19
19 23 c18 21 26 27 26 19z m-99 -120 c-10 -9 -11 -8 -5 6 3 10 9 15 12 12 3
-3 0 -11 -7 -18z"/>
<path d="M7300 8755 c80 -19 187 -51 238 -71 51 -20 95 -34 98 -31 3 3 -24 19
-59 36 -80 38 -263 87 -354 95 -59 5 -48 1 77 -29z"/>
<path d="M4228 8650 c-103 -12 -285 -60 -395 -105 -316 -130 -599 -391 -872
-803 -112 -168 -177 -320 -251 -587 -65 -235 -105 -351 -215 -630 -186 -471
-268 -714 -310 -920 l-14 -70 5 65 c3 36 10 81 15 100 5 19 8 44 8 55 -2 36
-38 -92 -68 -243 -104 -511 -45 -826 204 -1082 l57 -59 -25 -53 c-32 -71 -123
-202 -210 -306 -110 -130 -198 -242 -240 -305 -43 -65 -112 -205 -104 -213 2
-3 25 32 49 78 55 103 143 226 274 383 125 150 227 300 250 367 17 51 17 51
34 31 13 -17 18 -50 23 -150 3 -71 9 -137 13 -146 5 -14 -6 -23 -51 -42 -129
-57 -222 -140 -275 -245 -46 -92 -109 -293 -130 -416 -19 -111 -19 -117 -3
-139 44 -56 134 -159 229 -263 96 -103 104 -115 104 -152 l0 -40 -63 49 c-35
27 -91 75 -126 106 -35 31 -65 54 -68 51 -10 -10 135 -184 245 -292 23 -23 42
-50 42 -61 0 -32 67 -231 93 -276 13 -23 30 -60 37 -82 23 -73 52 -135 61
-129 5 3 9 83 8 177 -2 135 2 188 16 247 17 74 64 204 71 197 2 -1 -6 -45 -16
-97 -20 -95 -44 -340 -42 -435 2 -170 9 -233 31 -269 36 -57 150 -152 209
-172 1 0 7 -27 13 -60 22 -120 81 -188 202 -233 32 -12 72 -28 89 -37 19 -10
34 -12 40 -6 5 5 -8 15 -34 25 -75 29 -72 13 -78 471 l-5 410 -26 -40 c-15
-22 -45 -62 -68 -88 -43 -49 -93 -140 -105 -188 -3 -16 -11 -28 -16 -28 -5 0
-6 -17 -3 -38 6 -34 5 -36 -11 -22 -18 14 -18 30 -1 100 6 22 2 20 -29 -15
-36 -41 -45 -41 -25 -2 26 48 178 223 191 219 5 -1 11 6 15 15 3 10 23 39 44
64 l38 46 3 546 3 547 28 27 27 28 262 5 262 5 18 45 c9 25 21 68 25 95 7 45
8 41 11 -47 3 -92 4 -98 24 -98 21 0 21 1 15 182 -5 120 -3 196 4 222 l11 38
76 -7 c42 -4 108 -17 147 -30 51 -16 77 -20 95 -13 35 12 157 130 213 206 84
115 86 243 5 377 -45 76 -74 140 -59 130 6 -3 11 -2 11 4 0 18 122 162 251
297 161 169 291 323 282 337 -3 5 -2 7 4 4 5 -3 59 50 119 120 129 149 163
196 70 98 -36 -38 -71 -69 -77 -67 -6 1 -7 -2 -4 -9 7 -11 -34 -56 -47 -52 -4
2 -5 -3 -2 -11 3 -7 -2 -18 -9 -25 -12 -9 -16 -8 -21 5 -4 10 8 33 32 63 22
25 47 58 57 73 9 15 22 25 28 21 6 -3 7 -1 3 5 -3 6 10 36 30 67 19 31 49 84
65 118 l29 62 -6 -165 c-5 -118 -2 -218 10 -350 9 -102 19 -214 22 -250 19
-224 95 -435 176 -486 56 -36 155 -121 309 -267 127 -120 146 -134 270 -199
285 -149 449 -264 587 -413 63 -68 70 -73 120 -79 81 -10 199 -51 271 -93 80
-47 194 -160 240 -237 51 -85 101 -215 101 -261 -1 -75 -18 -84 -225 -121 -88
-15 -161 -29 -163 -30 -2 -1 0 -18 3 -37 l7 -36 179 -3 c224 -4 221 -2 229
-139 l5 -91 39 31 c160 128 382 351 503 506 48 62 182 249 241 335 24 36 46
67 47 68 4 4 -8 -33 -49 -161 -29 -86 -44 -168 -29 -152 5 6 43 113 84 239
l74 228 92 70 c86 64 123 101 123 121 0 5 -19 -7 -42 -25 -48 -38 -94 -68
-104 -68 -4 0 27 35 69 79 74 75 77 81 77 125 l0 47 -59 -63 c-33 -35 -61 -61
-64 -58 -3 3 15 39 39 80 24 42 51 105 60 140 32 126 5 373 -60 535 -15 39
-15 36 -8 -75 4 -63 7 -153 6 -200 0 -83 -29 -276 -42 -284 -4 -2 -7 42 -7 97
-1 206 -96 467 -254 691 -68 97 -46 42 47 -119 28 -50 69 -130 90 -180 37 -86
78 -222 69 -231 -2 -2 -16 33 -31 80 -28 90 -108 232 -157 281 -28 28 -26 22
26 -90 31 -66 72 -156 90 -200 34 -80 70 -214 60 -223 -2 -3 -7 1 -9 9 -3 8
-17 48 -32 89 -33 96 -158 346 -236 472 -33 54 -61 98 -62 98 -2 0 12 -70 38
-185 12 -50 -8 -11 -94 189 -68 159 -151 316 -166 316 -6 0 27 -63 66 -131 72
-122 0 -36 -130 154 -29 43 -55 76 -57 74 -2 -2 1 -35 7 -73 21 -146 4 -169
-30 -41 -23 86 -132 310 -175 362 l-26 30 10 -27 c6 -15 14 -35 20 -45 20 -37
89 -199 94 -222 13 -55 -22 9 -92 168 -40 91 -87 186 -104 212 l-31 48 -25
-42 c-45 -76 -111 -236 -111 -271 0 -62 6 -67 51 -49 33 13 50 14 97 5 31 -6
73 -14 93 -17 64 -10 73 -23 71 -104 -2 -48 2 -80 13 -101 14 -27 14 -33 1
-58 -16 -31 -61 -69 -113 -95 -54 -28 -166 -39 -272 -26 -179 21 -286 66 -536
224 -232 147 -409 280 -498 375 l-75 80 -12 -37 c-7 -21 -37 -90 -68 -153 -49
-101 -66 -125 -141 -201 -137 -138 -241 -189 -381 -188 l-75 1 95 19 c139 27
225 73 325 173 140 140 196 248 259 501 38 153 56 301 56 464 0 107 -25 305
-85 671 -33 202 -53 360 -75 595 -16 168 -56 421 -75 475 -8 24 -14 51 -13 60
10 58 -139 296 -271 434 -91 94 -163 145 -274 192 -107 46 -178 61 -312 68
-60 2 -128 11 -150 19 -92 33 -263 49 -377 37z m91 -183 c-8 -23 -19 -35 -30
-34 -14 1 -15 6 -7 29 6 15 14 31 20 34 5 4 5 -4 -2 -16 -6 -12 -9 -24 -6 -28
4 -3 12 8 18 26 7 17 14 29 16 27 2 -2 -2 -19 -9 -38z m58 -22 c-15 -16 -19
-13 -11 9 3 9 10 13 15 10 5 -3 3 -11 -4 -19z m46 10 c-3 -9 -8 -14 -10 -11
-3 3 -2 9 2 15 9 16 15 13 8 -4z m-223 -41 c0 -3 -8 0 -17 7 -15 12 -16 12 -9
-6 4 -11 3 -16 -1 -11 -4 4 -8 18 -8 32 -1 23 -1 23 17 4 10 -10 18 -22 18
-26z m141 23 c-10 -9 -11 -8 -5 6 3 10 9 15 12 12 3 -3 0 -11 -7 -18z m-88
-40 c-9 -14 -22 23 -15 42 4 10 8 8 14 -8 4 -13 5 -28 1 -34z m214 38 c0 -8
-4 -12 -9 -9 -4 3 -8 9 -8 15 0 5 4 9 8 9 5 0 9 -7 9 -15z m95 -17 c-20 -34
-38 -42 -46 -21 -8 20 17 49 43 49 19 0 19 -2 3 -28z m-407 -18 l30 -35 -32
29 c-18 17 -33 34 -33 40 0 5 1 7 3 5 1 -2 16 -20 32 -39z m-67 -15 c-3 -3 -9
2 -12 12 -6 14 -5 15 5 6 7 -7 10 -15 7 -18z m-53 -25 c3 -6 -1 -7 -9 -4 -18
7 -21 14 -7 14 6 0 13 -4 16 -10z m740 0 c-3 -5 -16 -15 -28 -21 l-22 -12 20
21 c21 22 41 30 30 12z m-821 -11 c-4 -7 -44 0 -44 7 0 2 11 3 24 2 14 -1 23
-5 20 -9z m62 -16 c17 -17 16 -18 -11 -21 -27 -3 -49 14 -39 30 9 13 32 9 50
-9z m654 -3 c-8 -5 -22 -9 -30 -9 -10 0 -8 3 5 9 27 12 43 12 25 0z m-733 -6
c-3 -3 -12 -4 -19 -1 -8 3 -5 6 6 6 11 1 17 -2 13 -5z m918 -4 c-16 -4 -41 -8
-55 -8 l-25 0 25 8 c14 4 39 8 55 8 l30 0 -30 -8z m-988 -56 c-3 -3 -12 -4
-19 -1 -8 3 -5 6 6 6 11 1 17 -2 13 -5z m1023 -28 c0 -2 -13 -9 -30 -15 -35
-12 -41 -5 -7 9 25 10 37 12 37 6z m-1042 -23 c-10 -2 -28 -2 -40 0 -13 2 -5
4 17 4 22 1 32 -1 23 -4z m-75 -10 c-7 -2 -19 -2 -25 0 -7 3 -2 5 12 5 14 0
19 -2 13 -5z m-100 -30 c-7 -2 -19 -2 -25 0 -7 3 -2 5 12 5 14 0 19 -2 13 -5z
m205 0 c-21 -2 -57 -2 -80 0 -24 2 -7 4 37 4 44 0 63 -2 43 -4z m-281 -9 c-3
-3 -12 -4 -19 -1 -8 3 -5 6 6 6 11 1 17 -2 13 -5z m663 -21 c-14 -18 -17 -29
-10 -31 7 -3 3 -10 -9 -19 -12 -8 -21 -18 -21 -23 0 -5 -13 -22 -30 -38 -30
-31 -38 -52 -20 -52 21 0 9 -19 -25 -39 -39 -22 -67 -77 -54 -102 7 -13 3 -18
-15 -23 -33 -8 -41 -35 -18 -60 10 -12 30 -41 44 -66 45 -77 97 -129 174 -171
71 -39 190 -151 179 -169 -3 -4 3 -14 13 -21 16 -13 16 -13 2 6 -14 18 -14 19
2 7 9 -7 36 -39 59 -70 24 -31 54 -70 68 -86 l26 -28 -52 26 c-29 14 -53 31
-53 36 0 6 -5 10 -11 10 -18 0 9 -28 60 -63 25 -17 73 -55 106 -85 33 -31 84
-71 114 -90 58 -37 212 -164 207 -170 -4 -3 -67 31 -98 53 -10 6 -16 14 -13
17 6 5 -73 73 -125 107 -27 18 -24 13 15 -23 28 -25 49 -50 48 -55 -1 -5 5 -8
15 -7 9 0 16 -4 15 -11 -2 -8 4 -10 14 -6 10 4 14 2 10 -4 -7 -11 109 -100
124 -96 5 2 10 -9 11 -25 1 -15 3 -43 4 -62 10 -156 16 -218 30 -286 8 -44 18
-142 22 -219 l6 -140 13 85 c7 47 11 93 9 103 -6 26 1 21 28 -20 25 -38 25
-38 9 -108 -8 -38 -18 -77 -21 -85 -3 -8 -4 -21 -3 -29 1 -7 -2 -10 -7 -7 -5
3 -15 -14 -21 -39 -6 -24 -15 -47 -21 -50 -5 -3 -10 -12 -10 -18 0 -20 40 46
41 68 0 11 3 15 5 8 8 -19 -27 -125 -40 -120 -6 3 -27 -29 -48 -75 -21 -44
-31 -74 -23 -68 17 14 55 95 55 116 0 8 5 14 11 14 15 0 4 -32 -44 -129 -26
-52 -49 -85 -59 -87 -10 -1 -18 1 -18 6 0 12 26 31 33 23 4 -3 7 -4 7 0 0 23
-24 7 -70 -46 -35 -40 -41 -50 -17 -28 37 35 72 50 64 28 -3 -7 -11 -10 -18
-9 -8 2 -11 0 -7 -4 9 -9 -11 -36 -22 -29 -4 2 -18 -8 -31 -23 l-24 -27 28 24
c15 14 27 20 27 14 0 -12 -51 -49 -63 -45 -4 1 -6 -4 -5 -10 2 -7 -3 -12 -10
-10 -8 1 -11 -2 -8 -7 7 -11 -157 -133 -299 -221 -269 -168 -413 -213 -566
-176 -72 16 -107 42 -174 126 -58 72 -70 96 -33 64 l22 -19 -20 26 c-10 15
-22 22 -25 17 -4 -6 -13 0 -22 13 -9 12 -14 26 -11 31 3 5 1 7 -4 6 -15 -4
-119 119 -162 192 -74 126 -220 464 -206 477 2 2 15 -21 29 -51 39 -84 156
-234 202 -258 11 -6 -10 20 -46 58 -125 130 -180 241 -180 362 -1 86 17 140
59 181 51 50 65 78 44 84 -10 3 -5 5 11 6 37 1 34 16 -5 27 -27 8 -34 16 -42
49 -8 34 -6 41 14 57 12 10 32 18 45 18 18 0 25 -8 34 -45 18 -73 40 -87 119
-82 67 4 67 4 64 33 -7 73 -116 166 -211 180 -26 4 -64 2 -89 -5 -69 -18 -92
11 -51 63 15 18 30 26 53 26 39 0 245 -57 264 -73 11 -9 17 -7 27 6 12 17 41
25 31 8 -3 -5 3 -11 14 -14 19 -5 19 -4 3 27 -9 17 -18 26 -21 18 -2 -7 -14 7
-25 30 -27 53 -79 81 -192 102 -121 23 -172 25 -196 8 -20 -14 -20 -13 -14 50
20 197 99 404 195 511 70 78 117 108 291 188 165 75 194 93 226 147 30 49 29
61 -2 32 -14 -13 -25 -19 -25 -13 0 6 21 29 48 52 39 34 44 42 32 51 -13 9
-11 14 13 31 29 22 37 45 12 35 -8 -3 -15 -1 -15 4 0 6 9 10 20 10 13 0 20 7
20 20 0 12 7 20 16 20 17 0 46 25 42 37 -4 14 22 53 35 53 7 0 34 25 60 55 50
57 74 75 37 28z m480 3 c32 -10 38 -15 20 -15 -14 0 -38 6 -55 14 -40 18 -21
18 35 1z m-1070 -6 c-8 -5 -19 -10 -25 -10 -5 0 -3 5 5 10 8 5 20 10 25 10 6
0 3 -5 -5 -10z m-75 -10 c-3 -5 -12 -10 -18 -10 -7 0 -6 4 3 10 19 12 23 12
15 0z m1325 -11 c-32 -4 -59 -4 -64 2 -6 5 15 9 55 8 l64 -1 -55 -9z m-1315
-19 c-3 -5 -12 -10 -18 -10 -7 0 -6 4 3 10 19 12 23 12 15 0z m80 -10 c-3 -5
-16 -15 -28 -21 -21 -10 -21 -9 2 10 25 23 36 27 26 11z m965 -34 c0 -12 -40
3 -60 23 l-25 23 43 -21 c23 -12 42 -23 42 -25z m-96 19 c11 -8 16 -15 12 -15
-5 0 -2 -7 5 -17 9 -10 0 -7 -23 8 -20 13 -34 27 -32 31 7 11 16 9 38 -7z
m208 -17 c14 -13 34 -29 44 -36 11 -7 1 -3 -22 7 -40 19 -75 51 -57 51 6 0 21
-10 35 -22z m-1162 -18 c0 -5 -8 -10 -17 -10 -15 0 -16 2 -3 10 19 12 20 12
20 0z m1110 -27 c0 -7 -39 17 -46 28 -3 6 5 3 20 -6 14 -10 26 -19 26 -22z
m-1026 18 c9 -14 -45 -34 -58 -21 -8 8 -6 9 7 5 12 -5 17 -2 17 9 0 17 25 22
34 7z m1186 -17 c0 -2 -9 0 -20 6 -11 6 -20 13 -20 16 0 2 9 0 20 -6 11 -6 20
-13 20 -16z m-1310 11 c0 -2 -13 -11 -30 -20 -38 -19 -40 -11 -2 9 31 17 32
18 32 11z m1205 -41 l30 -26 -35 23 c-45 29 -45 29 -34 29 5 0 23 -12 39 -26z
m-1072 -1 c-7 -2 -19 -2 -25 0 -7 3 -2 5 12 5 14 0 19 -2 13 -5z m948 -10 c13
-16 12 -17 -3 -4 -10 7 -18 15 -18 17 0 8 8 3 21 -13z m-1006 -3 c-11 -5 -27
-9 -35 -9 -9 0 -8 4 5 9 11 5 27 9 35 9 9 0 8 -4 -5 -9z m969 -14 c32 -14 80
-49 112 -80 31 -30 60 -53 65 -51 9 6 109 -76 159 -131 l35 -38 -50 39 c-27
21 -69 56 -92 79 -24 22 -49 41 -57 42 -19 3 -106 73 -106 85 0 5 -30 24 -67
43 -79 41 -78 47 1 12z m388 -17 c28 -1 34 -3 18 -6 -14 -3 -30 -9 -36 -14 -6
-5 -25 1 -47 17 -44 30 -48 40 -7 19 16 -8 48 -16 72 -16z m-292 -9 c6 -11 9
-20 8 -20 -2 0 -11 9 -21 20 -9 11 -13 20 -7 20 5 0 14 -9 20 -20z m395 -20
c3 -6 -1 -7 -9 -4 -18 7 -21 14 -7 14 6 0 13 -4 16 -10z m-225 -117 c0 -6 -93
69 -102 82 -24 32 0 19 47 -26 30 -29 55 -54 55 -56z m-49 -101 l64 -77 -94
88 c-51 48 -97 87 -101 87 -4 0 -24 20 -45 45 l-37 45 75 -55 c41 -31 104 -91
138 -133z m-182 104 c8 -12 -6 -3 -31 19 -25 22 -47 44 -47 48 -1 12 61 -41
78 -67z m441 32 c0 -13 -5 -9 -31 19 l-24 26 27 -19 c15 -10 28 -22 28 -26z
m-17 -75 c43 -50 28 -40 -28 18 -28 29 -39 44 -25 34 14 -10 38 -34 53 -52z
m71 45 c-5 -7 -2 -9 8 -6 9 4 25 -5 40 -20 45 -49 43 -57 -7 -21 -26 20 -50
44 -51 53 -1 9 2 14 7 10 5 -3 6 -10 3 -16z m36 -77 c30 -27 50 -50 44 -51 -6
0 -40 27 -75 60 -35 34 -55 57 -44 51 11 -5 45 -32 75 -60z m-524 27 c17 -13
29 -29 27 -35 -3 -7 0 -14 6 -14 6 -1 15 -2 21 -3 5 0 14 -6 21 -13 21 -21
-44 -4 -67 18 -11 10 -23 17 -26 13 -6 -6 -68 23 -68 32 0 2 14 -2 30 -11 17
-9 30 -11 30 -5 0 5 -6 10 -12 11 -10 0 -10 2 0 6 6 2 10 9 6 14 -8 14 0 11
32 -13z m-1515 -120 c-79 -156 -151 -367 -181 -528 -24 -128 -64 -547 -73
-765 -2 -53 -4 -46 -5 32 -1 57 5 201 13 320 13 192 21 268 41 388 4 23 3 26
-5 15 -18 -25 -13 -5 30 128 46 142 106 298 145 375 28 56 94 167 99 167 1 0
-28 -60 -64 -132z m1280 75 c13 -16 12 -17 -3 -4 -10 7 -18 15 -18 17 0 8 8 3
21 -13z m9 -81 c0 -2 -5 0 -12 4 -8 5 -9 1 -5 -12 6 -19 6 -19 -6 0 -7 11 -24
34 -39 51 -44 51 -33 54 17 5 25 -24 45 -46 45 -48z m267 8 c5 0 22 -14 39
-31 26 -28 27 -30 5 -19 -44 22 -171 112 -171 120 0 5 26 -9 59 -31 32 -21 63
-39 68 -39z m-340 -28 c26 -31 61 -69 78 -84 16 -14 27 -29 24 -32 -3 -3 -50
42 -105 101 -54 59 -87 99 -72 89 15 -10 48 -43 75 -74z m131 62 c6 3 48 -22
94 -57 158 -119 263 -200 268 -205 15 -15 -44 23 -100 64 -36 26 -117 82 -180
123 -63 42 -116 83 -118 91 -2 11 2 10 12 -4 8 -10 19 -15 24 -12z m143 -152
c32 -30 59 -58 59 -64 0 -17 -52 21 -120 90 -51 51 -58 61 -32 46 19 -10 60
-43 93 -72z m-152 20 c23 -21 41 -44 41 -50 0 -7 4 -12 8 -12 5 0 14 -10 20
-22 7 -13 19 -34 28 -48 20 -31 3 -12 -60 68 -27 34 -52 62 -55 62 -3 0 -12 9
-19 20 -18 29 -9 25 37 -18z m154 -142 c21 -40 57 -100 79 -133 22 -33 36 -57
29 -53 -15 10 -137 196 -145 224 -4 12 -12 22 -17 22 -5 0 -9 5 -9 11 0 28 28
-4 63 -71z m199 -295 c14 -26 0 -11 -46 50 l-38 50 36 -40 c20 -22 42 -49 48
-60z m-1932 -126 c-31 -146 -58 -233 -118 -374 -57 -135 -136 -361 -167 -478
-10 -37 -20 -66 -22 -63 -4 4 2 45 36 236 11 63 25 151 31 195 15 111 67 367
90 445 26 92 24 57 -5 -68 -13 -59 -29 -150 -35 -202 -6 -52 -13 -105 -16
-117 -20 -96 87 129 150 312 19 55 42 126 51 158 25 87 28 63 5 -44z m2510
-190 c13 -24 12 -26 -15 -31 -15 -2 -21 3 -23 25 -4 33 22 38 38 6z m-87 -31
c4 -15 -6 -38 -38 -81 -25 -32 -45 -64 -45 -69 0 -6 -5 -6 -14 1 -10 8 -16 9
-21 1 -3 -5 -10 -10 -15 -10 -16 0 41 104 78 143 42 43 48 45 55 15z m-2013
-53 c-28 -29 -34 -58 -20 -86 6 -10 8 -19 5 -19 -11 0 -35 69 -35 100 0 28 2
30 37 30 l36 0 -23 -25z m2131 -30 c9 -28 20 -75 23 -105 l6 -55 -34 90 c-18
50 -37 98 -41 109 -6 14 -4 17 11 14 13 -2 24 -20 35 -53z m-2439 -215 c2
-135 1 -213 -3 -175 -7 73 -12 431 -5 424 2 -2 5 -114 8 -249z m2360 170 l15
-35 -44 0 c-23 0 -43 1 -43 4 0 7 52 73 55 69 2 -2 9 -19 17 -38z m-204 -34
c23 6 51 -13 36 -23 -8 -6 -7 -12 4 -23 9 -8 19 -14 22 -13 3 0 3 -4 1 -10
-15 -43 -12 -70 13 -107 14 -22 26 -45 26 -53 0 -8 22 -17 56 -23 52 -10 57
-9 64 10 30 81 38 136 21 136 -5 0 -11 -7 -15 -15 -9 -24 -65 -18 -101 10 -40
30 -50 61 -25 75 17 9 130 15 130 7 0 -2 14 -44 31 -92 37 -107 34 -139 -19
-197 -26 -29 -30 -38 -15 -30 22 12 58 53 66 75 10 29 15 -3 6 -39 -12 -43
-68 -121 -141 -196 -38 -39 -53 -48 -81 -48 -19 0 -45 9 -58 19 -19 15 -23 27
-21 65 2 52 16 86 35 86 7 0 33 20 57 45 24 25 40 45 34 45 -6 0 -25 -16 -44
-35 -19 -19 -38 -35 -42 -35 -4 0 -8 26 -8 58 0 73 -22 164 -60 254 -36 83
-36 83 -9 65 11 -8 28 -13 37 -11z m-1548 -86 c0 -5 -7 -10 -15 -10 -8 0 -15
5 -15 10 0 6 7 10 15 10 8 0 15 -4 15 -10z m1554 -141 c15 -78 18 -149 6 -149
-3 0 -14 13 -25 28 -17 23 -20 43 -20 139 0 131 13 125 39 -18z m-1861 94 c-7
-2 -19 -2 -25 0 -7 3 -2 5 12 5 14 0 19 -2 13 -5z m-11 -84 c1 -19 7 -37 13
-41 6 -5 5 -11 -5 -18 -13 -8 -12 -11 5 -24 11 -8 22 -12 25 -9 3 3 -1 8 -7
10 -7 3 -13 9 -13 14 0 6 3 8 8 6 4 -3 8 6 9 20 1 19 -1 22 -8 12 -5 -8 -9 -9
-9 -3 0 23 15 24 32 2 17 -22 18 -22 18 -3 0 16 2 17 10 5 9 -15 -8 -52 -34
-75 -6 -5 -18 -19 -26 -30 -14 -19 -14 -19 3 -6 20 16 23 2 4 -23 -9 -12 -12
-38 -10 -70 3 -44 2 -47 -7 -26 -9 21 -29 230 -29 305 0 34 18 -7 21 -46z m93
-10 c11 -16 1 -19 -13 -3 -7 8 -8 14 -3 14 5 0 13 -5 16 -11z m-619 -95 c-14
-64 -34 -128 -35 -112 -2 14 41 189 45 185 2 -2 -2 -35 -10 -73z m38 -76 c-8
-116 -92 -577 -120 -661 -13 -39 -25 -80 -25 -91 -1 -12 -5 -3 -10 19 -17 80
9 250 76 500 20 72 45 172 57 223 12 50 23 92 25 92 1 0 0 -37 -3 -82z m3037
-213 c-1 -77 -5 -156 -10 -175 -6 -24 -8 13 -7 120 0 85 -2 196 -6 245 l-7 90
15 -70 c9 -43 15 -123 15 -210z m-2992 156 c4 -44 3 -77 -1 -73 -9 9 -23 169
-13 160 4 -3 10 -43 14 -87z m210 -144 c12 -43 35 -108 51 -144 17 -36 29 -68
27 -70 -2 -2 -20 32 -40 75 -41 89 -74 210 -82 297 l-5 60 14 -70 c7 -38 23
-105 35 -148z m-433 -8 c-14 -68 -34 -149 -45 -179 l-20 -55 0 45 c-1 39 78
325 87 316 2 -2 -8 -59 -22 -127z m691 69 c-3 -8 -6 -5 -6 6 -1 11 2 17 5 13
3 -3 4 -12 1 -19z m-784 -292 c-3 -54 -11 -103 -17 -110 -27 -29 -106 -217
-121 -286 -9 -44 -54 -145 -60 -138 -3 3 11 52 30 109 36 103 75 227 137 426
17 57 33 101 35 100 1 -2 0 -47 -4 -101z m83 -22 c-24 -97 -59 -194 -71 -194
-8 0 -5 11 47 173 23 70 42 126 44 124 2 -2 -7 -48 -20 -103z m524 -208 c38
-78 92 -184 120 -236 28 -52 52 -108 54 -125 l4 -30 -35 40 c-59 68 -69 85
-52 97 11 8 11 9 -3 4 -13 -4 -24 5 -40 34 -13 22 -29 38 -35 35 -7 -2 -13 1
-13 8 0 7 -6 3 -12 -8 -6 -11 -16 -23 -21 -26 -5 -4 -5 -9 2 -13 6 -4 11 -2
11 4 0 6 5 8 10 5 6 -3 10 -1 10 4 0 26 19 6 44 -48 18 -37 26 -66 22 -79 -4
-11 -2 -23 3 -27 7 -4 8 1 4 11 -4 12 -3 15 5 10 7 -4 15 -25 18 -47 4 -22 11
-42 15 -45 5 -3 9 -11 9 -17 0 -7 -16 11 -35 38 -40 57 -75 100 -75 90 0 -3 9
-25 21 -48 12 -23 16 -37 9 -30 -7 6 -37 62 -69 124 -31 62 -63 114 -71 117
-9 2 -11 0 -4 -5 12 -10 48 -122 41 -129 -3 -3 -13 8 -23 25 -31 53 -32 34 -3
-50 40 -111 35 -123 -7 -19 -18 47 -32 95 -30 107 2 12 0 20 -4 18 -14 -9 -42
130 -50 245 -4 63 -6 116 -5 118 7 9 44 -119 39 -134 -4 -14 -3 -15 4 -6 7 10
16 2 37 -35 16 -26 35 -52 42 -56 12 -7 12 -11 -2 -21 -14 -10 -11 -12 22 -13
21 -1 32 0 26 3 -7 3 -13 12 -13 19 0 7 -4 15 -10 17 -5 2 -12 23 -16 48 -6
43 -6 44 10 25 17 -20 17 -20 7 2 -6 12 -8 30 -5 40 6 17 6 17 -8 -1 -14 -18
-15 -18 -22 5 -8 31 -36 181 -35 194 0 6 9 -14 20 -44 10 -30 50 -118 89 -195z
m2062 117 c-18 -45 -50 -173 -63 -248 -7 -38 -15 -62 -17 -52 -8 39 71 348 85
333 3 -3 1 -18 -5 -33z m-2267 -224 c50 -198 175 -490 283 -662 83 -132 61
-114 -32 26 -169 253 -271 535 -291 802 l-5 70 15 -86 c7 -48 21 -115 30 -150z
m-424 160 c-5 -24 -12 -53 -16 -64 l-8 -20 17 20 c17 20 17 20 10 -5 -7 -28
-44 -95 -69 -125 -12 -15 -15 -16 -12 -4 3 9 15 50 27 90 41 145 71 207 51
108z m114 -86 c-6 -57 -104 -647 -131 -793 l-13 -75 5 110 c8 169 62 500 120
743 10 39 20 72 22 72 2 0 1 -26 -3 -57z m-280 -125 c-21 -84 -41 -157 -46
-162 -13 -14 -12 -10 20 121 42 171 52 206 57 200 3 -3 -11 -74 -31 -159z
m180 -49 c-20 -112 -39 -211 -42 -219 -10 -31 -35 57 -40 142 l-6 87 37 49
c20 28 46 73 58 101 11 28 23 50 25 47 2 -2 -12 -95 -32 -207z m2289 -5 c3 -8
2 -12 -4 -9 -6 3 -10 -1 -10 -10 0 -9 -4 -14 -9 -10 -11 6 -33 -28 -26 -39 3
-3 2 -4 -1 -1 -7 4 -46 -40 -44 -50 2 -13 -122 -155 -259 -294 -95 -97 -211
-230 -211 -242 0 -4 -10 -9 -22 -11 -13 -2 -22 -9 -20 -16 1 -8 -2 -11 -9 -6
-9 5 -10 2 -6 -10 4 -11 3 -15 -4 -10 -11 7 -61 -35 -54 -45 2 -4 -1 -13 -7
-21 -8 -12 -9 -12 -4 3 7 22 -7 22 -28 -2 -15 -16 -16 -28 -6 -107 8 -61 16
-91 28 -100 22 -17 27 -17 43 2 10 13 10 17 -2 26 -11 7 -11 11 -1 15 6 2 10
9 6 14 -3 5 2 9 10 9 8 0 20 9 26 20 7 14 7 20 0 20 -5 0 -10 5 -10 11 0 8 5
7 15 -1 9 -7 14 -19 11 -25 -2 -7 0 -17 6 -23 8 -8 3 -13 -16 -18 -26 -6 -35
-27 -16 -39 16 -10 12 -35 -5 -29 -8 4 -15 2 -15 -2 0 -17 -59 -12 -63 5 -3 9
-5 -5 -6 -31 -1 -36 3 -48 13 -48 8 0 18 5 22 12 5 8 2 9 -9 5 -11 -4 -17 -1
-17 8 0 9 6 12 15 9 11 -5 13 -2 9 10 -4 11 -1 16 10 16 12 0 14 -7 10 -30 -5
-20 -3 -30 6 -30 7 0 10 6 7 14 -7 19 28 52 38 36 4 -6 14 -9 22 -6 11 4 13 2
10 -9 -4 -8 -1 -17 5 -21 6 -4 -3 -15 -22 -27 -18 -12 -28 -23 -21 -25 6 -2
22 3 35 11 15 10 27 12 33 6 6 -6 14 -4 23 6 11 13 11 18 0 28 -10 10 -12 9
-7 -5 4 -12 1 -18 -9 -18 -13 0 -13 4 1 30 13 26 14 30 1 30 -8 0 -18 5 -21
10 -4 6 5 10 20 10 24 0 26 -3 21 -25 -4 -15 -2 -25 4 -25 6 0 8 5 5 10 -3 6
-2 10 4 10 5 0 11 6 14 13 2 6 2 2 0 -10 -2 -13 1 -23 7 -23 5 0 10 -9 10 -21
0 -12 -4 -17 -11 -13 -8 4 -9 0 -4 -15 4 -14 -3 -34 -23 -64 -38 -54 -152
-176 -152 -161 0 6 11 20 25 32 14 13 23 28 19 34 -4 6 -3 9 2 6 5 -3 15 0 21
8 8 8 9 15 3 19 -6 3 -10 1 -10 -5 0 -6 -4 -8 -10 -5 -5 3 -10 23 -10 43 -1
33 -2 35 -14 20 -7 -10 -16 -15 -19 -11 -4 3 -7 -3 -7 -15 0 -14 -5 -20 -14
-16 -8 3 -17 0 -22 -7 -4 -8 -3 -10 4 -5 7 4 12 2 12 -3 0 -10 -14 -13 -36
-10 -8 1 -24 -22 -24 -35 0 -5 8 -2 18 5 16 13 16 13 2 -5 -14 -18 -13 -19 5
-12 16 6 17 5 8 -5 -10 -10 -16 -9 -29 2 -14 11 -19 11 -33 -6 -16 -20 -72
-55 -86 -55 -4 0 14 15 41 33 70 47 94 99 94 203 0 46 -5 140 -11 210 l-11
126 38 31 c54 43 89 80 326 337 113 124 243 271 289 328 45 56 83 102 85 102
1 0 5 -7 8 -16z m-2403 -109 c2 -75 18 -127 49 -160 18 -20 18 -22 0 -130 -24
-136 -62 -252 -78 -233 -29 36 -82 162 -96 230 -22 107 -21 120 18 181 19 30
49 84 67 120 18 37 34 65 36 64 1 -2 3 -34 4 -72z m-107 -52 c-9 -21 -21 -42
-26 -48 -14 -14 -2 53 13 72 22 25 28 13 13 -24z m147 -45 c12 -24 15 -36 7
-28 -15 16 -41 70 -33 70 3 0 14 -19 26 -42z m3475 -33 c-26 -224 -262 -493
-513 -585 -33 -12 -71 -20 -84 -18 -21 3 -19 6 15 16 47 14 159 79 246 143 68
50 146 126 197 194 42 55 108 189 124 253 7 28 15 52 17 52 3 0 2 -25 -2 -55z
m1421 -127 c-5 -103 -28 -190 -62 -234 -10 -13 -9 -4 5 28 24 59 50 193 50
259 0 27 3 49 6 49 4 0 4 -46 1 -102z m-4979 -282 c26 -41 32 -46 38 -30 17
55 21 53 20 -13 -1 -39 -2 -71 -3 -70 -1 1 -21 31 -46 67 -55 81 -83 135 -91
180 -6 28 -2 24 22 -25 16 -33 43 -82 60 -109z m767 -173 c-38 -69 -144 -207
-152 -199 -3 3 22 40 55 83 32 43 74 104 92 136 18 32 35 56 37 53 3 -3 -11
-36 -32 -73z m1095 67 c0 -5 -8 -10 -17 -10 -15 0 -16 2 -3 10 19 12 20 12 20
0z m-37 -33 c-3 -4 -6 -7 -7 -5 -1 2 -8 12 -16 22 -14 18 -14 18 7 6 12 -8 19
-18 16 -23z m60 8 c-3 -9 -8 -14 -10 -11 -3 3 -2 9 2 15 9 16 15 13 8 -4z
m-21 -7 c3 -7 13 -13 23 -13 10 0 20 -6 23 -14 3 -8 0 -11 -7 -7 -6 4 -11 1
-11 -8 0 -8 -5 -18 -12 -22 -8 -5 -9 -2 -4 11 4 11 2 22 -6 27 -20 12 -34 10
-20 -4 19 -19 14 -28 -11 -19 -12 5 -39 7 -61 6 -24 -2 -35 0 -29 6 5 5 25 11
44 12 34 2 63 19 52 31 -4 3 -1 6 5 6 5 0 12 -6 14 -12z m-62 -58 c4 0 10 -10
14 -22 4 -17 -2 -28 -21 -44 -25 -19 -69 -22 -58 -4 3 5 14 6 25 3 27 -7 25 3
-5 31 -28 26 -32 38 -10 30 8 -4 15 -1 15 6 0 7 7 10 16 6 9 -3 19 -6 24 -6z
m126 -12 c4 -7 3 -8 -4 -4 -12 7 -16 -5 -13 -31 2 -18 -9 -16 -31 4 -17 16
-26 39 -10 30 4 -3 16 -1 27 4 11 4 21 8 22 8 1 1 5 -4 9 -11z m4 -28 c0 -5
-2 -10 -4 -10 -3 0 -8 5 -11 10 -3 6 -1 10 4 10 6 0 11 -4 11 -10z m24 -6 c3
-8 2 -12 -4 -9 -6 3 -10 10 -10 16 0 14 7 11 14 -7z m-64 -25 c0 -14 -17 -10
-23 5 -4 10 -1 13 9 9 7 -3 14 -9 14 -14z m60 -9 c21 -21 26 -40 11 -40 -5 0
-13 9 -16 20 -7 21 -25 28 -25 10 0 -5 5 -10 10 -10 6 0 10 -5 10 -11 0 -8 -5
-7 -15 1 -9 7 -19 9 -23 5 -4 -4 -1 -10 6 -12 14 -5 16 -33 2 -33 -5 0 -10 7
-10 15 0 9 -6 12 -16 8 -14 -5 -14 -3 -3 16 8 11 17 21 21 21 5 0 8 7 8 15 0
21 16 19 40 -5z m-95 -41 c11 -17 2 -18 -19 -3 -17 12 -17 14 -4 14 9 0 20 -5
23 -11z m-65 -3 c0 -11 -19 -15 -25 -6 -3 5 1 10 9 10 9 0 16 -2 16 -4z m160
-16 c0 -5 -4 -10 -10 -10 -5 0 -10 5 -10 10 0 6 5 10 10 10 6 0 10 -4 10 -10z
m-80 -20 c0 -5 -7 -10 -15 -10 -8 0 -15 5 -15 10 0 6 7 10 15 10 8 0 15 -4 15
-10z m-1378 -192 c-17 -19 -97 -72 -82 -55 8 9 95 76 99 76 3 1 -5 -9 -17 -21z
m1316 -53 c-3 -3 -9 2 -12 12 -6 14 -5 15 5 6 7 -7 10 -15 7 -18z m-38 -25 c0
-5 -4 -10 -10 -10 -5 0 -10 5 -10 10 0 6 5 10 10 10 6 0 10 -4 10 -10z m-464
-262 c-8 -122 -25 -205 -44 -220 -13 -11 -14 -1 -10 82 5 87 39 230 55 230 3
0 3 -42 -1 -92z m-742 -480 c-17 -30 -95 -138 -100 -138 -3 0 18 34 47 75 28
41 53 75 56 75 2 0 1 -6 -3 -12z m-99 -215 c-25 -32 -61 -76 -81 -98 l-35 -40
16 35 c14 29 131 160 143 160 2 0 -17 -26 -43 -57z m68 5 c-5 -7 -48 -67 -96
-134 -108 -152 -146 -185 -48 -42 73 106 137 188 148 188 3 0 1 -6 -4 -12z
m-435 -603 l-1 -40 -8 45 c-4 25 -7 70 -7 100 l1 55 7 -60 c4 -33 8 -78 8
-100z m332 -239 c0 -2 -8 -10 -17 -17 -16 -13 -17 -12 -4 4 13 16 21 21 21 13z
m205 -216 c-14 -62 -25 -124 -25 -137 0 -25 -11 -29 -41 -13 -21 12 -25 52 -8
97 13 35 91 174 96 170 2 -2 -8 -55 -22 -117z m-327 13 c-5 -20 -8 -55 -5 -78
l5 -40 -13 30 c-13 29 -11 55 6 103 14 36 18 25 7 -15z m339 -180 c-2 -16 -4
-5 -4 22 0 28 2 40 4 28 2 -13 2 -35 0 -50z m-85 -188 c11 -22 31 -54 44 -72
35 -46 29 -52 -12 -12 -42 40 -72 86 -84 130 -9 31 -9 31 11 13 12 -11 30 -37
41 -59z"/>
<path d="M4535 8430 c-3 -5 1 -10 10 -10 9 0 13 5 10 10 -3 6 -8 10 -10 10 -2
0 -7 -4 -10 -10z"/>
<path d="M4040 7741 c0 -29 57 -132 105 -190 61 -75 185 -200 185 -187 0 5
-28 38 -61 74 -79 84 -143 172 -180 244 -28 54 -49 80 -49 59z"/>
<path d="M3908 7632 c-68 -81 -99 -105 -211 -166 -89 -49 -172 -119 -253 -214
-76 -88 -129 -162 -117 -162 5 0 17 15 28 33 34 58 138 178 206 236 36 32 107
79 157 104 97 51 185 123 234 194 48 71 28 59 -44 -25z"/>
<path d="M3798 7593 c-21 -9 -38 -20 -38 -24 0 -5 2 -9 4 -9 8 0 76 42 76 46
0 2 -1 4 -2 3 -2 -1 -20 -8 -40 -16z"/>
<path d="M4080 7542 c0 -5 17 -33 39 -63 43 -60 135 -140 316 -274 66 -49 150
-115 188 -147 37 -32 71 -58 74 -58 9 0 0 8 -102 97 -44 38 -114 94 -155 123
-147 106 -276 218 -315 274 -38 56 -45 63 -45 48z"/>
<path d="M3679 7503 c-13 -16 -12 -17 4 -4 9 7 17 15 17 17 0 8 -8 3 -21 -13z"/>
<path d="M4489 7292 c5 -9 19 -26 32 -37 19 -16 18 -13 -5 18 -30 39 -43 49
-27 19z"/>
<path d="M3360 7215 c-7 -9 -11 -17 -9 -20 3 -2 10 5 17 15 14 24 10 26 -8 5z"/>
<path d="M3296 7035 c-9 -26 -7 -32 5 -12 6 10 9 21 6 23 -2 3 -7 -2 -11 -11z"/>
<path d="M4260 6935 c-47 -14 -122 -37 -168 -51 -103 -31 -167 -82 -157 -123
11 -45 24 -45 19 0 l-4 44 12 -45 c8 -28 20 -46 30 -48 9 -2 72 20 140 49 254
108 367 136 484 123 30 -4 54 -4 54 -1 0 13 -199 69 -260 73 -50 3 -85 -2
-150 -21z"/>
<path d="M4323 6715 c-113 -25 -162 -73 -188 -182 -19 -76 -19 -76 9 -58 13 8
30 13 38 10 9 -4 18 1 22 12 3 10 9 24 12 31 3 7 -1 12 -10 12 -29 0 -17 20
31 50 58 37 69 37 76 3 10 -45 45 -93 67 -93 34 0 79 28 101 63 l21 32 -6 -30
c-4 -16 -19 -41 -34 -55 -28 -25 -33 -60 -9 -60 18 1 52 29 44 36 -4 4 2 14
13 21 11 8 17 19 14 25 -4 6 -2 8 3 5 6 -4 22 2 34 13 13 11 18 19 12 20 -21
0 -15 20 6 20 11 0 33 11 48 25 l28 24 -39 1 -38 0 17 26 c20 30 15 40 -13 25
-30 -16 -43 -14 -40 6 2 13 -4 18 -22 19 -14 1 -50 4 -80 8 -33 3 -80 0 -117
-9z m-123 -89 c0 -2 -8 -10 -17 -17 -16 -13 -17 -12 -4 4 13 16 21 21 21 13z
m226 -43 c-10 -10 -19 5 -10 18 6 11 8 11 12 0 2 -7 1 -15 -2 -18z m44 -113
c0 -5 -4 -10 -10 -10 -5 0 -10 5 -10 10 0 6 5 10 10 10 6 0 10 -4 10 -10z"/>
<path d="M4090 6603 c0 -5 5 -26 11 -47 8 -31 13 -36 20 -24 9 16 -9 78 -23
78 -4 0 -8 -3 -8 -7z"/>
<path d="M3680 6575 c0 -5 5 -17 10 -25 5 -8 10 -10 10 -5 0 6 -5 17 -10 25
-5 8 -10 11 -10 5z"/>
<path d="M3701 6520 c0 -8 4 -22 9 -30 12 -18 12 -2 0 25 -6 13 -9 15 -9 5z"/>
<path d="M4382 6460 c-7 -11 -8 -20 -2 -20 5 0 14 9 20 20 6 11 7 20 3 20 -5
0 -14 -9 -21 -20z"/>
<path d="M4288 6463 c6 -2 18 -2 25 0 6 3 1 5 -13 5 -14 0 -19 -2 -12 -5z"/>
<path d="M3714 6154 c-10 -14 -19 -49 -21 -77 l-4 -52 22 34 c19 28 37 121 24
121 -3 0 -12 -12 -21 -26z"/>
<path d="M3736 6041 c-3 -4 -10 -21 -16 -37 -10 -28 -9 -28 6 -9 26 33 36 55
25 55 -5 0 -12 -4 -15 -9z"/>
<path d="M3795 6028 c18 -24 44 -43 50 -36 1 2 -14 17 -34 33 -35 30 -35 30
-16 3z"/>
<path d="M5061 6024 c0 -11 3 -14 6 -6 3 7 2 16 -1 19 -3 4 -6 -2 -5 -13z"/>
<path d="M3677 6000 c-24 -88 4 -132 93 -149 47 -8 60 -7 90 9 19 10 34 23 32
30 -4 18 18 40 40 40 10 0 17 -4 14 -9 -4 -5 3 -7 15 -4 11 3 32 0 45 -8 23
-12 24 -14 7 -21 -11 -5 -5 -7 17 -3 38 5 80 45 80 73 -1 12 -5 8 -16 -10 -25
-46 -47 -51 -79 -18 -15 16 -41 34 -57 39 -25 9 -33 6 -62 -19 l-33 -29 -24
27 -24 27 28 -24 c15 -14 27 -20 27 -15 -1 37 -75 54 -118 26 -15 -9 -30 -21
-34 -26 -3 -5 -12 13 -20 40 -13 44 -15 46 -21 24z"/>
<path d="M3390 5831 c0 -6 4 -13 10 -16 6 -3 7 1 4 9 -7 18 -14 21 -14 7z"/>
<path d="M3763 5693 c-19 -21 -39 -37 -44 -35 -6 1 -6 -6 1 -17 14 -27 13 -29
-15 -23 -17 3 -25 0 -25 -10 0 -19 29 -45 55 -50 11 -2 19 -10 17 -19 -1 -8
15 -35 35 -60 l37 -44 -38 35 c-30 28 -36 30 -27 12 10 -18 10 -27 -1 -40 -11
-15 -11 -16 4 -4 9 7 18 9 20 5 9 -21 98 -82 142 -96 46 -16 51 -16 90 2 51
23 126 78 126 92 0 5 -4 8 -9 4 -6 -3 -14 2 -19 11 -8 14 -16 15 -61 5 -102
-22 -142 -16 -205 31 -31 23 -56 45 -56 49 0 13 31 39 46 39 8 0 13 -3 11 -7
-3 -5 15 -8 40 -8 25 0 39 1 31 4 -13 4 101 32 137 33 11 0 62 -2 113 -4 50
-3 92 -2 92 2 0 19 -35 33 -83 34 -37 1 -61 8 -82 24 -17 12 -57 33 -89 46
-54 22 -61 23 -93 9 -31 -13 -40 -12 -75 2 l-40 16 -35 -38z"/>
<path d="M3468 5680 c13 -19 50 -83 83 -142 34 -59 75 -122 92 -140 18 -19 24
-25 15 -13 -36 43 -117 205 -112 222 4 14 3 15 -4 5 -7 -10 -15 -3 -35 31 -14
24 -34 50 -44 58 -13 11 -12 6 5 -21z"/>
<path d="M4731 5446 c-25 -26 -29 -36 -19 -41 7 -5 10 -4 5 0 -4 5 7 24 25 42
17 18 30 33 27 33 -3 0 -20 -15 -38 -34z"/>
<path d="M4640 5378 c-14 -11 -24 -25 -22 -31 2 -5 -4 -7 -12 -4 -9 4 -17 3
-20 -1 -3 -4 4 -9 15 -9 11 -1 25 7 32 18 6 10 17 19 24 19 7 0 13 7 13 15 0
19 0 19 -30 -7z"/>
<path d="M3808 5378 c5 -5 16 -8 23 -6 8 3 3 7 -10 11 -17 4 -21 3 -13 -5z"/>
<path d="M3889 5303 c-13 -15 -12 -15 11 -3 34 17 36 20 18 20 -9 0 -22 -7
-29 -17z"/>
<path d="M4430 5243 c-57 -37 -140 -81 -185 -100 -82 -34 -92 -45 -14 -17 24
9 49 17 54 18 6 1 21 9 35 17 14 9 59 37 101 63 72 43 130 85 119 85 -3 0 -52
-30 -110 -66z"/>
<path d="M3845 5270 c-10 -11 -16 -22 -14 -24 2 -2 12 7 22 20 22 29 17 32 -8
4z"/>
<path d="M3770 5241 c0 -6 4 -13 10 -16 6 -3 7 1 4 9 -7 18 -14 21 -14 7z"/>
<path d="M3815 5220 c-3 -5 -1 -10 6 -10 7 0 9 -8 6 -21 -3 -12 -3 -18 0 -15
4 3 16 -2 27 -11 21 -18 21 -18 3 3 -10 12 -19 31 -20 43 -1 22 -12 28 -22 11z"/>
<path d="M3880 5129 c0 -9 77 -32 90 -27 5 2 -14 10 -41 19 -27 8 -49 12 -49
8z"/>
<path d="M4033 5093 c15 -2 39 -2 55 0 15 2 2 4 -28 4 -30 0 -43 -2 -27 -4z"/>
<path d="M5190 6515 c-6 -8 -10 -19 -8 -26 2 -6 9 0 16 15 13 29 10 33 -8 11z"/>
<path d="M5230 6110 c0 -13 28 -25 38 -16 3 4 0 11 -8 16 -20 13 -30 12 -30 0z"/>
<path d="M3060 5594 c0 -8 5 -12 10 -9 6 4 8 11 5 16 -9 14 -15 11 -15 -7z"/>
<path d="M2970 5501 c0 -6 4 -13 10 -16 6 -3 7 1 4 9 -7 18 -14 21 -14 7z"/>
<path d="M3002 5490 c7 -11 16 -20 20 -20 5 0 3 9 -4 20 -7 11 -16 20 -20 20
-5 0 -3 -9 4 -20z"/>
<path d="M2990 5456 c0 -2 8 -10 18 -17 15 -13 16 -12 3 4 -13 16 -21 21 -21
13z"/>
<path d="M3126 5452 c-3 -5 1 -9 9 -9 8 0 12 4 9 9 -3 4 -7 8 -9 8 -2 0 -6 -4
-9 -8z"/>
<path d="M3118 5400 c-15 -17 -15 -18 4 -23 14 -4 18 -2 14 9 -5 12 -1 14 16
8 20 -6 21 -5 6 10 -20 19 -19 19 -40 -4z"/>
<path d="M3056 5383 c-6 -14 -5 -15 5 -6 7 7 10 15 7 18 -3 3 -9 -2 -12 -12z"/>
<path d="M3077 5372 c-3 -4 1 -13 9 -19 7 -7 15 -9 17 -5 3 4 -1 13 -9 19 -7
7 -15 9 -17 5z"/>
<path d="M4200 4250 c0 -5 -7 -10 -15 -10 -8 0 -15 -4 -15 -10 0 -13 11 -12
33 4 19 15 22 26 7 26 -5 0 -10 -4 -10 -10z"/>
<path d="M4130 4220 c-8 -5 -10 -10 -5 -10 6 0 17 5 25 10 8 5 11 10 5 10 -5
0 -17 -5 -25 -10z"/>
<path d="M4215 4190 c-3 -5 -1 -10 4 -10 6 0 11 5 11 10 0 6 -2 10 -4 10 -3 0
-8 -4 -11 -10z"/>
<path d="M4270 4186 c0 -2 7 -6 15 -10 8 -3 15 -1 15 4 0 6 -7 10 -15 10 -8 0
-15 -2 -15 -4z"/>
<path d="M4140 4158 c-12 -22 -12 -22 6 -6 10 10 15 20 12 24 -4 3 -12 -5 -18
-18z"/>
<path d="M4195 4160 c-3 -5 0 -10 9 -10 8 0 16 -5 18 -12 3 -7 7 -5 11 6 4 10
3 15 -3 11 -6 -3 -10 -1 -10 4 0 14 -17 14 -25 1z"/>
<path d="M4190 4123 c0 -9 3 -13 7 -10 3 4 13 1 21 -6 13 -11 14 -9 1 11 -16
26 -29 29 -29 5z"/>
<path d="M4120 4454 c0 -3 7 -12 16 -21 11 -12 18 -13 27 -4 8 8 7 11 -6 11
-9 0 -17 5 -17 10 0 6 -4 10 -10 10 -5 0 -10 -3 -10 -6z"/>
<path d="M7248 7730 c-26 -11 -73 -34 -105 -52 l-58 -33 100 -6 c64 -3 116
-12 145 -24 46 -19 173 -95 168 -100 -2 -2 -23 1 -48 5 -100 20 -210 6 -290
-35 -19 -10 -29 -20 -22 -22 6 -3 12 -10 12 -16 0 -13 75 -15 126 -3 26 7 32
4 42 -18 8 -19 25 -29 69 -42 32 -9 69 -23 81 -31 24 -15 24 -14 18 19 l-6 33
17 -34 c10 -19 24 -36 31 -37 7 -1 8 0 2 3 -16 8 -12 26 5 19 8 -3 15 0 15 7
0 7 7 3 15 -7 8 -11 15 -15 15 -9 0 6 10 13 23 16 20 6 20 4 -6 -19 -15 -13
-24 -24 -18 -24 8 0 191 148 191 155 0 1 7 20 15 41 14 36 14 38 -1 17 -9 -13
-25 -23 -35 -23 -16 0 -18 5 -13 25 5 19 2 25 -9 25 -18 0 -370 171 -375 182
-6 14 -55 8 -104 -12z m17 -270 c-3 -5 -16 -10 -28 -10 -18 0 -19 2 -7 10 20
13 43 13 35 0z m105 -45 c7 -8 8 -15 2 -15 -5 0 -15 7 -22 15 -7 8 -8 15 -2
15 5 0 15 -7 22 -15z"/>
<path d="M6073 7498 c-27 -30 -63 -90 -63 -105 0 -19 17 -16 42 9 13 13 23 17
25 11 3 -7 18 -2 40 13 37 25 68 31 77 15 10 -16 -6 -71 -20 -71 -8 0 -14 -4
-14 -10 0 -14 15 -13 55 4 25 11 36 12 42 3 3 -6 2 -12 -4 -14 -5 -2 -34 -18
-64 -36 -41 -25 -55 -39 -59 -62 -8 -41 9 -104 30 -115 17 -9 17 -8 0 25 -19
38 -16 76 9 99 31 28 45 24 43 -14 -2 -25 6 -49 28 -83 34 -54 37 -74 13 -80
-10 -3 -4 -5 14 -6 46 -2 49 13 14 66 -36 54 -38 77 -12 116 17 27 17 31 1 90
-25 94 -46 126 -93 148 -55 25 -79 24 -104 -3z"/>
<path d="M7844 7426 c-34 -33 -65 -71 -69 -84 -7 -23 50 -182 81 -227 18 -25
18 -16 -1 28 -15 38 -12 47 18 47 13 0 17 5 13 15 -6 17 23 85 36 85 5 0 11
-7 14 -15 13 -33 26 -14 20 29 -7 42 -6 45 28 65 19 12 38 30 41 40 7 23 -9
69 -19 53 -10 -17 -26 -15 -20 3 5 11 -1 15 -24 15 -17 0 -36 2 -44 4 -7 2
-41 -24 -74 -58z m6 -177 c0 -6 -4 -7 -10 -4 -5 3 -10 11 -10 16 0 6 5 7 10 4
6 -3 10 -11 10 -16z"/>
<path d="M7814 7448 l-19 -23 23 19 c21 18 27 26 19 26 -2 0 -12 -10 -23 -22z"/>
<path d="M6058 7357 c-3 -19 -2 -25 4 -19 6 6 8 18 6 28 -3 14 -5 12 -10 -9z"/>
<path d="M7965 7252 c-20 -15 -48 -52 -38 -52 5 0 19 14 31 30 23 31 24 35 7
22z"/>
<path d="M6075 7140 c10 -11 20 -20 23 -20 3 0 -3 9 -13 20 -10 11 -20 20 -23
20 -3 0 3 -9 13 -20z"/>
<path d="M6200 7096 c0 -2 7 -6 15 -10 8 -3 15 -1 15 4 0 6 -7 10 -15 10 -8 0
-15 -2 -15 -4z"/>
<path d="M7900 6972 c0 -10 -12 -30 -28 -45 l-28 -26 -39 24 c-51 31 -106 32
-169 1 -27 -13 -56 -21 -64 -18 -27 10 -3 -17 30 -34 27 -14 33 -14 63 0 36
17 73 20 93 8 10 -7 10 -19 2 -58 -13 -57 -7 -90 19 -104 16 -8 21 -6 26 9 3
10 1 30 -5 45 -5 15 -10 41 -10 57 0 23 4 29 20 29 63 0 142 99 100 125 -5 3
-10 -2 -10 -13z"/>
<path d="M7778 6963 c6 -2 18 -2 25 0 6 3 1 5 -13 5 -14 0 -19 -2 -12 -5z"/>
<path d="M7852 6790 c0 -14 2 -19 5 -12 2 6 2 18 0 25 -3 6 -5 1 -5 -13z"/>
<path d="M7600 6671 c-90 -35 -129 -46 -138 -38 -15 12 -51 -17 -38 -30 4 -5
53 -7 109 -6 109 3 145 -6 183 -44 29 -29 38 -29 52 2 13 28 38 25 47 -6 4
-10 10 -19 15 -19 9 0 24 109 16 118 -3 3 -6 -2 -6 -11 0 -31 -36 -19 -46 15
-6 19 -22 39 -39 49 -30 17 -31 17 -155 -30z"/>
<path d="M7605 6492 c-33 -6 -39 -11 -37 -27 7 -42 114 -105 178 -105 19 0 26
9 39 52 14 49 14 54 -2 65 -9 7 -24 13 -34 13 -9 0 -36 2 -60 4 -24 2 -62 1
-84 -2z"/>
<path d="M6760 6410 c0 -9 88 -35 95 -28 3 2 -18 11 -45 20 -28 9 -50 13 -50
8z"/>
<path d="M7727 6055 c-39 -34 -87 -45 -208 -45 -114 0 -152 -9 -213 -49 -33
-22 -49 -47 -104 -161 -35 -74 -66 -138 -68 -142 -6 -10 140 -152 216 -209 69
-53 108 -73 320 -168 91 -42 125 -53 105 -37 l-30 24 -2 229 c-1 125 1 308 5
406 4 97 7 177 7 177 0 0 -12 -12 -28 -25z"/>
<path d="M7117 5623 c-3 -2 10 -26 29 -51 86 -115 131 -167 194 -218 68 -56
200 -201 258 -284 17 -25 41 -56 52 -70 l21 -25 -12 25 c-44 91 -178 257 -283
351 -27 24 -95 97 -152 161 -56 64 -104 114 -107 111z"/>
<path d="M4990 5582 c0 -14 28 -23 36 -11 3 6 3 13 0 16 -3 4 -6 1 -6 -7 0
-10 -3 -10 -15 0 -9 7 -15 8 -15 2z"/>
<path d="M7810 5216 c0 -3 9 -10 20 -16 11 -6 20 -8 20 -6 0 3 -9 10 -20 16
-11 6 -20 8 -20 6z"/>
<path d="M7597 5184 c11 -16 40 -49 62 -74 38 -40 37 -38 -9 22 -51 68 -93
108 -53 52z"/>
<path d="M7890 5166 c0 -2 8 -10 18 -17 15 -13 16 -12 3 4 -13 16 -21 21 -21
13z"/>
<path d="M7937 4935 c4 -11 27 -60 51 -110 63 -129 107 -245 146 -392 19 -70
37 -139 39 -153 3 -14 3 13 1 60 -3 47 -6 155 -8 240 -4 169 -18 233 -61 285
-30 36 -30 36 -9 -124 19 -152 15 -176 -15 -86 -23 70 -108 244 -136 280 -15
20 -15 20 -8 0z"/>
<path d="M2302 4369 c-9 -17 -46 -69 -82 -116 -108 -142 -107 -142 -66 -103
56 52 191 250 171 250 -3 0 -14 -14 -23 -31z"/>
<path d="M5329 4068 c-285 -265 -418 -374 -590 -483 l-102 -65 102 0 c56 0
112 5 123 11 15 8 19 8 14 0 -12 -18 14 -12 46 10 35 26 30 38 -6 14 -14 -10
-26 -15 -26 -12 0 2 19 17 43 32 23 16 36 21 28 12 -12 -15 -11 -17 3 -17 9 0
16 5 16 10 0 6 6 10 13 10 40 0 534 460 520 484 -3 6 -2 8 2 3 5 -4 17 0 27
10 20 18 25 38 6 27 -7 -4 -8 -3 -4 5 4 6 12 9 17 6 5 -4 12 1 15 10 7 17 -50
85 -72 85 -6 0 -85 -69 -175 -152z m111 78 c0 -2 -8 -10 -17 -17 -16 -13 -17
-12 -4 4 13 16 21 21 21 13z m-223 -228 c2 -17 0 -19 -7 -8 -5 8 -6 18 -4 22
8 12 10 10 11 -14z m86 -13 c-3 -9 -8 -14 -10 -11 -3 3 -2 9 2 15 9 16 15 13
8 -4z m17 -18 c0 -2 -11 -14 -25 -27 -14 -13 -25 -21 -25 -17 0 3 10 15 22 27
21 19 28 24 28 17z m-230 -61 c0 -2 -8 -10 -17 -17 -16 -13 -17 -12 -4 4 13
16 21 21 21 13z m150 -21 c-13 -14 -28 -25 -34 -25 -6 1 3 12 19 25 39 32 45
32 15 0z m-110 -96 c-51 -43 -67 -51 -76 -37 -4 7 -3 8 4 4 7 -4 23 4 37 18
14 15 30 26 35 26 6 0 10 5 10 10 0 6 6 10 13 10 6 0 -4 -14 -23 -31z m-40 17
c0 -2 -7 -7 -16 -10 -8 -3 -12 -2 -9 4 6 10 25 14 25 6z m-65 -96 c-30 -31
-45 -38 -45 -19 0 5 4 8 9 5 4 -3 19 6 31 19 13 14 26 25 29 25 2 0 -8 -13
-24 -30z"/>
<path d="M5545 4070 c-89 -111 -431 -421 -562 -512 -27 -18 -41 -34 -34 -36 7
-2 26 5 42 17 36 27 48 27 24 1 -18 -19 -17 -20 3 -20 11 0 24 4 27 10 4 6 -1
7 -12 3 -15 -6 -16 -4 -6 9 7 8 10 17 7 20 -3 3 35 36 83 74 48 38 169 148
268 246 99 98 181 178 182 178 1 0 0 -6 -3 -13 -3 -8 3 -20 13 -28 16 -13 17
-12 4 4 -18 22 -8 33 12 13 12 -13 17 -13 26 -2 8 10 6 17 -7 30 -10 9 -22 13
-25 10 -4 -4 1 -13 11 -21 15 -13 15 -13 -5 -3 -26 12 -28 21 -12 37 9 9 18 4
35 -17 27 -31 30 -46 12 -53 -10 -4 -10 -6 -1 -6 6 -1 14 3 17 8 3 5 15 7 27
4 15 -4 20 -12 17 -28 -3 -13 0 -22 9 -22 7 0 13 3 13 7 0 3 9 6 19 6 15 0 17
-3 9 -13 -6 -8 -8 -16 -4 -20 3 -3 6 -2 6 4 0 6 11 11 25 11 14 0 24 -3 21 -5
-7 -7 16 -66 30 -81 7 -7 11 -19 8 -27 -4 -10 0 -12 14 -8 20 5 20 5 1 24 -10
10 -19 25 -19 33 0 8 -5 16 -11 18 -6 2 -9 13 -7 23 4 17 7 14 18 -13 7 -18
21 -37 32 -43 13 -7 18 -7 14 -1 -3 6 -1 12 6 14 9 3 9 6 0 12 -7 4 -12 2 -12
-3 0 -6 -5 -11 -11 -11 -8 0 -8 4 1 14 14 18 40 10 40 -13 0 -14 2 -14 10 -1
8 12 10 12 16 -3 4 -11 13 -16 22 -12 8 3 27 -2 41 -12 14 -10 28 -18 31 -18
26 -4 49 -18 44 -27 -4 -7 -2 -8 4 -4 13 8 48 -8 45 -20 -1 -4 -7 -11 -15 -16
-9 -7 -8 -8 5 -4 10 3 26 6 34 6 38 0 -22 35 -241 144 -174 85 -240 123 -264
150 -17 20 -33 36 -34 36 -2 -1 -21 -23 -43 -50z"/>
<path d="M5526 4002 c-3 -5 1 -17 8 -27 12 -17 13 -17 11 3 -2 26 -11 37 -19
24z"/>
<path d="M5581 3924 c0 -11 3 -14 6 -6 3 7 2 16 -1 19 -3 4 -6 -2 -5 -13z"/>
<path d="M2154 3888 l-19 -23 23 19 c21 18 27 26 19 26 -2 0 -12 -10 -23 -22z"/>
<path d="M5787 3866 c-4 -10 -1 -13 8 -9 8 3 12 9 9 14 -7 12 -11 11 -17 -5z"/>
<path d="M3752 3825 c0 -16 2 -22 5 -12 2 9 2 23 0 30 -3 6 -5 -1 -5 -18z"/>
<path d="M5810 3821 c0 -5 5 -13 10 -16 6 -3 10 -2 10 4 0 5 -4 13 -10 16 -5
3 -10 2 -10 -4z"/>
<path d="M6026 3802 c-3 -5 1 -9 9 -9 8 0 12 4 9 9 -3 4 -7 8 -9 8 -2 0 -6 -4
-9 -8z"/>
<path d="M6060 3773 c0 -12 74 -75 101 -85 11 -4 19 -13 18 -20 0 -10 -2 -10
-6 0 -2 6 -9 12 -15 12 -7 0 -6 -5 2 -14 6 -8 19 -12 27 -9 10 4 14 2 10 -4
-4 -6 1 -10 11 -9 9 0 16 -5 15 -11 -2 -7 0 -12 5 -12 21 4 30 -3 27 -20 -2
-13 2 -18 18 -17 14 1 21 -4 20 -14 -2 -10 6 -15 25 -16 25 -2 23 1 -28 47
-30 27 -89 72 -130 101 -41 28 -81 58 -87 66 -7 9 -13 11 -13 5z"/>
<path d="M5194 3678 l-19 -23 23 19 c12 11 22 21 22 23 0 8 -8 2 -26 -19z"/>
<path d="M6115 3620 c3 -5 8 -10 11 -10 2 0 4 5 4 10 0 6 -5 10 -11 10 -5 0
-7 -4 -4 -10z"/>
<path d="M6156 3592 c6 -4 13 -15 17 -25 5 -12 16 -17 36 -15 16 1 27 6 25 10
-3 5 -10 6 -15 3 -5 -4 -17 -1 -26 4 -10 6 -13 11 -8 11 6 0 3 5 -5 10 -17 11
-41 14 -24 2z"/>
<path d="M6060 3575 c-10 -12 -9 -16 4 -21 9 -4 20 -4 23 0 4 3 -2 6 -12 6
-14 0 -15 3 -5 15 7 8 10 15 7 15 -2 0 -10 -7 -17 -15z"/>
<path d="M5980 3569 c0 -5 5 -7 10 -4 6 3 10 8 10 11 0 2 -4 4 -10 4 -5 0 -10
-5 -10 -11z"/>
<path d="M6120 3560 c0 -5 4 -10 9 -10 6 0 13 5 16 10 3 6 -1 10 -9 10 -9 0
-16 -4 -16 -10z"/>
<path d="M6004 3449 c-104 -10 -236 -41 -308 -73 -138 -61 -301 -204 -375
-330 -44 -74 -95 -209 -117 -311 -24 -111 -24 -358 0 -478 63 -323 240 -553
506 -660 127 -50 256 -70 460 -70 341 0 534 55 831 239 l89 55 0 400 0 399
-445 0 -445 0 0 -195 0 -195 190 0 191 0 -3 -92 -3 -93 -85 -42 c-113 -56
-206 -77 -323 -71 -206 11 -326 110 -383 318 -25 92 -26 387 -2 477 40 142
107 231 216 285 63 31 72 33 177 33 98 0 116 -3 165 -26 65 -31 113 -77 146
-141 17 -34 28 -45 41 -42 10 2 133 24 273 49 140 25 256 48 259 50 6 6 -26
88 -62 160 -84 170 -235 287 -421 330 -136 31 -391 42 -572 24z"/>
<path d="M3160 2490 l0 -940 285 0 285 0 0 229 0 229 146 154 c80 84 149 154
153 156 5 2 97 -169 204 -380 l196 -383 355 -3 356 -2 -84 137 c-524 859 -626
1028 -622 1037 2 6 155 167 341 359 l336 347 -383 0 -384 0 -305 -356 -304
-355 -3 355 -2 356 -285 0 -285 0 0 -940z"/>
<path d="M3830 3325 c0 -72 -4 -69 113 -81 43 -4 65 -10 59 -16 -14 -14 -164
1 -155 15 3 5 1 7 -5 4 -6 -4 -11 -58 -11 -139 l-2 -132 35 39 c19 22 35 46
36 53 0 6 5 12 10 12 6 0 10 5 10 11 0 7 -10 9 -26 5 -19 -5 -25 -3 -21 6 2 7
10 12 16 11 6 -2 11 2 11 7 0 6 6 10 14 10 9 0 12 7 9 20 -3 11 -1 20 5 20 5
0 12 -10 16 -22 6 -22 9 -20 54 28 26 27 71 78 100 112 l53 62 -89 0 c-54 0
-116 7 -160 19 l-72 19 0 -63z m93 -52 c-7 -2 -19 -2 -25 0 -7 3 -2 5 12 5 14
0 19 -2 13 -5z m60 -10 c-7 -2 -19 -2 -25 0 -7 3 -2 5 12 5 14 0 19 -2 13 -5z
m21 -74 c-3 -5 -14 -9 -24 -9 -13 0 -17 -5 -14 -14 3 -8 1 -17 -5 -21 -10 -5
-16 14 -12 38 0 4 -5 7 -13 7 -7 0 -19 -13 -26 -30 -7 -16 -16 -30 -20 -30 -5
0 -17 -8 -26 -17 -17 -17 -17 -17 -11 -1 3 10 1 20 -5 24 -7 4 -5 10 6 16 9 5
20 7 24 4 4 -3 14 4 21 16 11 17 10 19 -6 14 -10 -3 -25 -1 -33 4 -10 7 10 10
67 9 46 -1 80 -6 77 -10z"/>
<path d="M3860 3140 c0 -5 5 -10 10 -10 6 0 10 5 10 10 0 6 -4 10 -10 10 -5 0
-10 -4 -10 -10z"/>
<path d="M5130 3307 c-28 -14 -38 -51 -20 -72 13 -16 32 -10 29 8 -1 7 3 25
10 41 14 35 12 38 -19 23z"/>
<path d="M5072 3258 c-7 -7 -12 -14 -12 -17 -1 -4 -88 -95 -195 -205 -107
-109 -192 -203 -189 -207 3 -5 -3 -9 -13 -9 -11 -1 -4 -7 16 -15 30 -13 33
-18 28 -44 -7 -34 5 -42 61 -40 l37 1 -40 12 c-31 10 -41 19 -47 44 -5 19 -15
32 -24 32 -8 0 -12 5 -9 11 4 6 14 8 22 5 8 -3 11 -1 8 5 -4 6 3 7 19 3 17 -4
26 -2 26 6 0 7 -7 10 -16 6 -9 -3 -12 -2 -9 5 4 5 15 7 26 4 11 -4 19 -2 19 4
0 6 -4 11 -10 11 -5 0 -10 8 -10 18 0 13 2 14 9 4 6 -10 10 -10 21 2 7 9 16
13 21 10 5 -3 9 2 9 11 0 11 5 15 15 11 9 -3 18 1 21 9 4 8 14 15 23 16 10 0
12 2 3 6 -7 3 -20 -1 -30 -8 -13 -11 -13 -9 2 9 21 24 42 29 49 10 4 -10 8 -9
16 2 6 8 11 20 11 25 0 6 -5 3 -10 -5 -7 -12 -12 -12 -21 -3 -18 18 16 29 36
13 12 -10 15 -9 15 4 0 9 5 16 11 16 5 0 8 4 5 8 -3 5 -1 22 4 38 4 16 9 23 9
17 1 -18 21 -16 21 1 0 8 12 24 28 36 15 12 22 19 15 16 -8 -5 -8 0 0 18 11
23 14 17 27 -62 17 -92 57 -222 69 -222 3 0 12 19 19 43 12 38 10 49 -17 128
-16 47 -34 118 -41 157 -6 40 -13 72 -14 72 -1 0 -7 -5 -14 -12z m-352 -403
c0 -2 -10 -9 -22 -15 -22 -11 -22 -10 -4 4 21 17 26 19 26 11z"/>
<path d="M5144 3243 c0 -10 6 -24 13 -30 6 -7 19 -46 29 -88 10 -41 21 -75 24
-75 4 0 12 12 18 26 7 14 8 23 3 20 -5 -3 -14 15 -20 40 -16 65 -44 124 -57
124 -7 0 -11 -8 -10 -17z"/>
<path d="M5267 3183 c-3 -27 -4 -50 -2 -51 9 -9 33 57 28 76 -9 36 -20 25 -26
-25z"/>
<path d="M1941 3168 c-12 -28 -18 -54 -13 -57 69 -49 134 -92 160 -105 33 -17
34 -17 27 4 -11 34 -133 209 -146 210 -4 0 -16 -23 -28 -52z"/>
<path d="M5217 3174 c-7 -7 5 -54 16 -61 6 -4 8 2 5 15 -3 12 -2 22 2 24 4 2
2 8 -5 15 -7 6 -15 10 -18 7z"/>
<path d="M1873 3038 c-15 -29 -28 -56 -28 -60 0 -3 23 -25 52 -47 l52 -42 -6
-52 -5 -53 68 -55 c99 -80 96 -79 88 -20 -4 28 -3 51 2 51 5 0 50 -34 99 -76
109 -91 177 -145 150 -117 -23 23 -235 212 -333 296 -37 32 -68 64 -70 72 -2
8 4 27 12 44 23 43 20 55 -19 85 l-34 27 -28 -53z"/>
<path d="M6115 2951 c-50 -9 -108 -36 -131 -62 -16 -17 -16 -22 -4 -29 8 -6
10 -10 5 -10 -6 0 -16 5 -22 11 -19 19 -80 -89 -88 -156 -16 -137 -16 -178 -4
-186 10 -6 11 -9 2 -9 -7 0 -13 -4 -13 -10 0 -5 16 0 35 11 19 12 32 26 28 32
-3 6 -1 7 6 3 6 -4 9 -12 6 -17 -10 -15 12 -10 25 6 11 14 7 19 -12 16 -5 0
-8 4 -8 10 0 5 -4 8 -8 5 -4 -2 -8 4 -9 14 -2 23 12 34 28 24 8 -4 7 -9 -2
-15 -7 -4 -10 -11 -6 -16 5 -4 12 -1 17 7 11 17 -8 43 -26 36 -19 -7 -25 5 -9
21 16 16 26 12 74 -29 33 -29 40 -44 16 -34 -18 7 -20 -13 -3 -49 12 -27 24
-32 31 -12 4 9 6 9 6 -1 1 -7 -8 -20 -18 -29 -11 -9 -17 -21 -14 -26 3 -6 1
-7 -4 -4 -11 7 -28 -20 -24 -36 1 -5 -3 -6 -9 -2 -6 3 -23 -6 -38 -22 -66 -65
-61 -52 7 21 61 66 71 81 59 90 -8 6 -17 18 -21 26 -4 12 -6 11 -6 -2 -1 -10
-9 -18 -19 -18 -10 0 -40 -7 -66 -16 l-48 -17 7 -66 c9 -87 33 -203 45 -215 8
-8 100 56 178 123 19 16 32 61 17 61 -2 0 -27 -14 -56 -30 -71 -43 -158 -84
-134 -65 11 9 19 20 18 25 -2 5 5 6 14 3 11 -4 14 -3 9 5 -4 7 -1 19 8 27 22
22 32 18 11 -5 -10 -11 -13 -20 -7 -20 6 0 16 9 22 20 6 11 8 20 4 20 -4 0 3
11 16 25 13 14 18 25 12 25 -7 0 -12 4 -12 9 0 5 11 4 24 -2 22 -11 23 -13 8
-21 -32 -17 -38 -47 -9 -45 8 0 8 2 -1 6 -10 4 -8 9 7 20 12 8 25 12 30 9 5
-4 16 -3 25 0 13 5 16 25 16 120 0 93 -3 112 -14 108 -19 -7 -31 15 -16 29 10
9 12 8 7 -6 -5 -14 -3 -16 11 -8 10 5 18 19 19 31 2 18 -1 19 -13 10 -10 -9
-14 -9 -14 -1 0 11 13 15 38 12 6 -1 12 2 12 7 0 18 56 24 238 22 146 0 183 2
180 12 -3 7 -22 14 -44 16 -49 4 -70 23 -102 90 -25 53 -65 92 -112 110 -37
14 -130 21 -175 13z m55 -98 c0 -2 -7 -11 -15 -20 -9 -8 -13 -18 -10 -21 3 -3
11 0 17 6 20 20 29 14 28 -20 -1 -18 0 -41 2 -52 2 -12 -5 -21 -22 -27 -22 -8
-23 -8 -7 5 9 7 17 16 17 20 0 13 -21 5 -37 -14 -23 -27 -37 -25 -22 3 11 19
10 20 -3 10 -8 -7 -18 -10 -21 -6 -13 12 -7 24 16 32 16 6 24 4 29 -8 5 -12 7
-11 7 7 1 15 -5 22 -18 22 -24 0 -22 27 3 46 10 7 15 17 11 23 -3 7 0 8 9 5 9
-3 16 -8 16 -11z m-202 -43 c-5 -17 -14 -33 -20 -36 -6 -4 -5 2 1 14 6 12 7
23 2 26 -5 3 -14 -6 -19 -22 -5 -15 -13 -36 -18 -46 -5 -14 -4 -17 4 -12 17
10 15 -6 -4 -33 -14 -19 -18 -21 -25 -9 -9 17 47 142 61 133 5 -3 11 -1 15 5
12 20 14 10 3 -20z m281 -2 c9 3 11 0 6 -8 -5 -8 -1 -18 9 -26 11 -8 13 -14 7
-19 -6 -3 -11 -1 -11 4 0 24 -29 9 -32 -16 l-3 -28 -12 32 c-10 27 -9 31 3 26
8 -3 14 -1 14 5 0 5 -7 12 -15 16 -8 3 -15 10 -15 16 0 7 6 8 18 2 9 -5 23 -7
31 -4z m-149 -13 c0 -8 -15 -22 -32 -30 -18 -8 -26 -13 -16 -11 17 5 48 -22
48 -42 0 -11 -13 -16 -32 -14 -3 1 -12 -5 -18 -14 -11 -12 -10 -13 4 -8 12 5
15 2 10 -10 -3 -9 -10 -16 -14 -16 -12 0 -20 28 -14 45 5 12 2 14 -12 8 -17
-6 -17 -5 -6 10 8 9 11 21 7 28 -8 12 42 66 63 68 6 1 12 -6 12 -14z m-112
-22 c-2 -10 2 -17 9 -16 7 2 10 -4 7 -12 -4 -8 -10 -13 -14 -10 -9 5 -40 -21
-40 -34 0 -4 14 -23 31 -42 18 -19 29 -26 26 -16 -4 9 -2 17 3 17 17 0 20 -18
4 -31 -14 -11 -19 -10 -34 8 -10 12 -20 19 -24 16 -3 -3 -8 2 -12 11 -6 15 -9
13 -25 -10 -10 -16 -15 -33 -10 -39 5 -6 1 -18 -10 -29 -21 -21 -27 -8 -6 13
10 11 9 13 -6 8 -20 -8 -19 -4 24 56 16 21 38 59 49 83 23 46 33 56 28 27z
m10 -73 c13 -21 9 -40 -9 -40 -6 0 -8 4 -4 9 3 5 1 12 -5 16 -12 7 -14 35 -2
35 4 0 13 -9 20 -20z m67 -110 c3 -6 -1 -7 -9 -4 -18 7 -21 14 -7 14 6 0 13
-4 16 -10z m-160 -47 c-2 -10 -4 -19 -4 -21 -1 -2 -6 0 -11 3 -8 5 -7 11 1 21
15 18 18 18 14 -3z"/>
<path d="M6160 2790 c0 -5 5 -10 10 -10 6 0 10 5 10 10 0 6 -4 10 -10 10 -5 0
-10 -4 -10 -10z"/>
<path d="M5896 2713 c-6 -14 -5 -15 5 -6 7 7 10 15 7 18 -3 3 -9 -2 -12 -12z"/>
<path d="M6050 2730 c-9 -6 -10 -10 -3 -10 6 0 15 5 18 10 8 12 4 12 -15 0z"/>
<path d="M5946 2677 c3 -10 9 -15 12 -12 3 3 0 11 -7 18 -10 9 -11 8 -5 -6z"/>
<path d="M5114 2866 c4 -10 2 -24 -2 -30 -17 -22 -20 -43 -6 -43 8 0 15 3 15
6 6 29 5 59 -3 71 -8 12 -8 11 -4 -4z"/>
<path d="M4583 2748 c-17 -19 -16 -19 27 -16 51 4 65 24 20 30 -21 3 -35 -1
-47 -14z"/>
<path d="M6631 2758 c-32 -7 -40 -12 -30 -19 20 -13 41 -11 33 3 -4 7 -3 8 5
4 6 -4 9 -12 6 -17 -7 -10 -3 -11 38 -14 24 -2 27 2 27 26 0 32 -6 33 -79 17z"/>
<path d="M5080 2740 c16 -30 30 -34 28 -8 -1 15 -9 25 -20 25 -15 2 -16 -2 -8
-17z"/>
<path d="M4875 2686 c46 -30 85 -66 73 -66 -3 0 -19 7 -36 15 -27 14 -96 25
-304 50 -49 6 -60 -3 -33 -25 8 -7 15 -18 15 -25 0 -9 24 -15 78 -20 129 -11
213 -32 270 -68 65 -40 141 -99 142 -109 0 -15 -167 -4 -286 18 -25 5 -32 2
-36 -13 -5 -17 6 -21 102 -36 59 -10 133 -26 165 -37 65 -22 79 -24 70 -10 -3
5 -6 32 -7 60 0 27 -3 48 -8 45 -4 -3 -24 8 -44 24 -100 80 -215 131 -294 131
-28 0 -31 2 -20 13 14 14 58 18 58 4 0 -4 21 -5 46 -2 25 3 43 2 41 -2 -3 -5
9 -9 25 -10 17 -1 42 -10 57 -19 24 -16 25 -16 12 -1 -7 9 -9 17 -3 17 20 0
32 -26 19 -40 -10 -12 -9 -12 5 -2 10 8 18 9 22 3 4 -5 -2 -15 -11 -21 -14 -9
-15 -10 -2 -7 9 3 22 0 28 -6 9 -9 10 -7 5 8 -7 20 -7 20 14 1 12 -10 19 -24
15 -30 -3 -6 -3 -8 2 -4 4 4 14 3 22 -3 10 -9 13 -6 13 12 0 13 -8 29 -17 36
-10 6 -65 43 -122 82 -58 39 -109 71 -115 71 -6 0 12 -15 39 -34z m-180 -34
c-26 -4 -28 -5 -10 -12 15 -7 11 -9 -20 -9 -22 0 -47 4 -55 10 -12 8 -10 9 9
4 13 -4 21 -3 18 2 -3 5 16 9 41 9 30 1 36 -1 17 -4z"/>
<path d="M5080 2701 c0 -6 4 -13 10 -16 6 -3 7 1 4 9 -7 18 -14 21 -14 7z"/>
<path d="M5982 2580 c0 -14 2 -19 5 -12 2 6 2 18 0 25 -3 6 -5 1 -5 -13z"/>
<path d="M4640 2551 c6 -12 21 -21 33 -21 12 0 32 -3 43 -6 15 -4 23 0 28 12
3 9 5 18 4 19 -2 1 -29 6 -61 10 -57 6 -58 6 -47 -14z"/>
<path d="M5067 2499 c7 -7 15 -10 18 -7 3 3 -2 9 -12 12 -14 6 -15 5 -6 -5z"/>
<path d="M4686 2475 c4 -8 8 -15 10 -15 2 0 4 7 4 15 0 8 -4 15 -10 15 -5 0
-7 -7 -4 -15z"/>
<path d="M7180 2355 c0 -19 3 -35 8 -35 4 0 25 16 47 35 l40 34 -47 1 -48 0 0
-35z"/>
<path d="M6035 2370 c-3 -6 1 -7 9 -4 18 7 21 14 7 14 -6 0 -13 -4 -16 -10z"/>
<path d="M6048 2280 c-20 -21 -34 -41 -30 -44 3 -4 -1 -4 -9 -1 -9 3 -23 -3
-35 -16 -19 -22 -19 -22 1 -15 23 9 44 14 63 15 7 1 10 6 6 13 -4 7 -3 8 5 4
6 -4 20 -4 31 -1 16 5 20 15 20 46 0 21 -3 39 -7 38 -5 -1 -25 -18 -45 -39z"/>
<path d="M4790 2304 c0 -11 25 -31 36 -27 6 2 22 -1 35 -7 21 -9 21 -9 -8 -4
-18 3 -33 3 -33 0 0 -3 12 -25 27 -50 24 -40 33 -47 78 -56 81 -17 195 -33
201 -27 3 3 -1 38 -8 78 l-13 74 -60 6 c-114 12 -255 19 -255 13z m127 -50
c-3 -3 -12 -4 -19 -1 -8 3 -5 6 6 6 11 1 17 -2 13 -5z m120 -30 c-3 -3 -12 -4
-19 -1 -8 3 -5 6 6 6 11 1 17 -2 13 -5z"/>
<path d="M6015 2205 c-38 -13 -78 -24 -87 -24 -10 -1 -18 -4 -18 -8 0 -15 52
-73 66 -73 9 0 12 -5 8 -11 -8 -14 35 -5 121 25 l62 21 -29 28 c-15 16 -28 37
-28 48 0 23 -7 23 -95 -6z m80 -74 c-6 -5 -23 -12 -40 -16 l-30 -6 30 15 c35
17 53 20 40 7z"/>
<path d="M3917 2065 l-88 -94 3 -86 3 -85 25 22 c26 24 36 58 16 58 -6 1 0 7
14 15 17 10 20 14 9 15 -11 0 -16 8 -15 24 0 14 6 22 14 19 8 -4 10 0 6 11 -5
12 2 18 26 22 22 5 28 9 18 15 -9 6 -7 9 9 9 17 0 21 4 17 18 -5 16 -5 16 6 0
6 -9 17 -15 24 -12 7 3 16 -3 20 -13 6 -14 9 -15 15 -4 6 9 11 1 16 -27 4 -23
5 -45 2 -49 -2 -4 2 -24 9 -43 8 -19 12 -25 10 -12 -4 19 -2 21 10 11 19 -15
18 -29 -3 -44 -16 -12 -16 -14 0 -29 9 -10 17 -14 17 -9 0 5 -5 14 -12 21 -8
8 -8 12 -1 12 18 0 36 -62 22 -74 -9 -8 -10 -6 -5 7 4 13 2 17 -6 14 -7 -2
-12 -10 -11 -16 2 -6 -2 -11 -9 -11 -7 0 -6 -5 4 -12 8 -7 18 -21 22 -32 6
-18 0 -18 -136 -15 l-142 4 -2 -86 c-1 -48 -4 -91 -7 -96 -4 -6 28 -15 76 -22
103 -15 474 -37 482 -29 4 3 -1 14 -9 25 -9 10 -21 26 -28 35 -10 13 -41 21
-123 32 l-110 14 71 1 c39 0 85 4 102 7 l31 6 -24 48 c-13 26 -33 50 -43 52
-14 4 -22 18 -27 49 -6 35 -179 392 -204 421 -4 5 -46 -35 -94 -87z"/>
<path d="M6191 2092 c-149 -51 -150 -59 -13 -66 73 -3 81 -1 152 35 41 21 89
47 105 58 l30 21 -70 -1 c-55 -1 -99 -12 -204 -47z"/>
<path d="M5040 2081 c-52 -9 -94 -20 -93 -24 1 -4 12 -25 24 -46 19 -35 26
-39 73 -45 28 -3 74 -6 102 -6 l52 0 -27 70 c-14 38 -28 69 -31 69 -3 -1 -48
-9 -100 -18z"/>
<path d="M5133 1877 c-35 -11 -63 -25 -63 -29 0 -13 44 -78 53 -78 4 0 24 7
44 15 53 22 65 18 13 -6 -56 -25 -54 -22 -36 -56 30 -56 27 -55 110 -20 43 18
78 35 79 37 1 3 -21 40 -48 82 -56 87 -58 87 -152 55z"/>
<path d="M3887 1824 c-11 -14 -21 -23 -24 -20 -11 11 -33 -24 -33 -52 0 -26 4
-30 32 -34 18 -3 44 -2 58 3 14 4 19 8 13 8 -7 1 -13 9 -13 19 -1 16 -1 16
-11 0 -16 -28 -24 -21 -25 22 -1 22 1 40 5 40 3 0 12 9 19 20 18 29 0 24 -21
-6z"/>
<path d="M4016 1717 c3 -10 9 -15 12 -12 3 3 0 11 -7 18 -10 9 -11 8 -5 -6z"/>
<path d="M4070 1710 c-13 -8 -12 -10 3 -10 9 0 17 5 17 10 0 12 -1 12 -20 0z"/>
</g>
</svg>
